<svg xmlns="http://www.w3.org/2000/svg" version="1.1" viewBox="1.211111068725586 0.06283736228942871 647.7888793945312 632.645263671875" width="649.00" height="634.00">
<g stroke-width="2.00" fill="none" stroke-linecap="butt">
<path stroke="#6fbfc1" stroke-opacity="0.851" d="&#10;  M 571.12 215.16&#10;  Q 571.11 214.95 571.11 214.74"/>
<path stroke="#7dc7c9" stroke-opacity="0.914" d="&#10;  M 571.11 214.74&#10;  Q 568.02 216.58 566.06 218.96"/>
<path stroke="#88ced1" stroke-opacity="0.961" d="&#10;  M 566.06 218.96&#10;  Q 562.08 222.81 560.29 224.04&#10;  Q 549.87 231.21 539.01 225.46"/>
<path stroke="#8bd0d2" stroke-opacity="0.976" d="&#10;  M 539.01 225.46&#10;  Q 535.63 223.35 532.89 220.61&#10;  Q 434.55 122.49 431.46 119.42&#10;  Q 425.95 113.98 424.20 109.68&#10;  Q 421.85 103.92 422.19 98.75&#10;  Q 422.54 93.35 423.82 78.70"/>
<path stroke="#7dc7c9" stroke-opacity="0.914" d="&#10;  M 423.82 78.70&#10;  Q 423.90 71.44 424.89 64.23&#10;  Q 425.21 61.94 424.72 52.90"/>
<path stroke="#136f80" stroke-opacity="0.992" d="&#10;  M 452.42 7.10&#10;  Q 456.21 7.80 457.38 6.34"/>
<path stroke="#8bd0d2" stroke-opacity="0.976" d="&#10;  M 486.6698 54.0134&#10;  A 15.23 15.04 -27.9 0 0 466.1723 47.8482&#10;  A 15.23 15.04 -27.9 0 0 459.7502 68.2666&#10;  A 15.23 15.04 -27.9 0 0 480.2477 74.4318&#10;  A 15.23 15.04 -27.9 0 0 486.6698 54.0134"/>
<path stroke="#8fd4d6" stroke-opacity="0.992" d="&#10;  M 564.41 160.05&#10;  Q 567.05 162.72 570.73 166.17&#10;  Q 574.87 170.08 578.72 166.02&#10;  Q 581.63 162.94 583.30 160.04&#10;  C 585.83 155.64 579.83 151.21 576.49 148.12&#10;  A 1.53 1.53 0.0 0 1 576.30 146.11&#10;  C 581.91 138.33 584.25 129.57 580.67 120.29&#10;  Q 578.52 114.73 572.66 110.40&#10;  C 564.71 104.51 552.56 104.34 544.04 108.78&#10;  C 537.17 112.36 532.88 115.32 526.46 115.89&#10;  C 521.67 116.31 516.68 113.41 516.02 108.40&#10;  C 514.90 99.87 523.79 94.07 531.15 91.87&#10;  Q 534.13 90.98 538.15 90.03&#10;  A 2.20 2.20 0.0 0 0 539.85 87.98&#10;  Q 540.05 83.40 539.94 79.23&#10;  C 539.65 68.89 523.49 76.88 519.23 79.59&#10;  A 1.93 1.93 0.0 0 1 516.79 79.30&#10;  Q 512.21 74.55 509.69 72.31&#10;  Q 505.82 68.87 502.32 72.46&#10;  C 498.85 76.03 494.36 80.31 498.13 84.53&#10;  Q 500.22 86.87 504.54 90.85&#10;  A 1.22 1.21 -53.2 0 1 504.76 92.37&#10;  C 502.53 96.13 499.89 100.68 499.38 104.74&#10;  Q 498.40 112.67 499.83 116.69&#10;  Q 502.62 124.49 508.42 128.39&#10;  C 516.84 134.05 528.84 135.01 537.95 129.31&#10;  C 544.28 125.34 555.49 118.81 562.26 125.23&#10;  C 566.87 129.59 565.44 134.97 561.79 139.51&#10;  Q 553.40 149.95 540.75 150.73&#10;  Q 538.05 150.89 538.12 154.02&#10;  Q 538.13 154.87 538.10 161.77&#10;  C 538.08 165.28 540.10 167.83 543.40 167.75&#10;  C 551.08 167.56 557.02 164.25 563.22 159.95&#10;  A 0.93 0.93 0.0 0 1 564.41 160.05"/>
<path stroke="#6c737b" stroke-opacity="0.914" d="&#10;  M 390.03 63.17&#10;  L 390.98 63.09"/>
<path stroke="#fac688" stroke-opacity="0.961" d="&#10;  M 402.76 75.77&#10;  C 398.98 72.17 394.80 73.71 390.34 74.17"/>
<path stroke="#fcfbfb" stroke-opacity="0.961" d="&#10;  M 390.34 74.17&#10;  Q 391.56 74.14 390.71 71.94&#10;  A 0.39 0.39 0.0 0 1 391.02 71.41&#10;  C 391.56 71.34 392.08 71.41 392.63 71.37&#10;  C 389.15 71.04 385.67 70.77 382.18 70.58&#10;  A 1.17 1.15 59.7 0 1 381.67 70.44&#10;  L 375.54 67.21"/>
<path stroke="#f6f6f5" stroke-opacity="0.914" d="&#10;  M 371.96 67.36&#10;  L 371.01 67.43"/>
<path stroke="#fdcc90" stroke-opacity="0.992" d="&#10;  M 390.34 74.17&#10;  Q 369.42 77.15 348.62 80.27&#10;  C 342.87 81.12 337.31 81.38 332.33 82.81&#10;  C 324.51 85.07 322.88 93.32 328.16 99.11&#10;  Q 332.23 103.57 339.44 110.76&#10;  C 341.22 112.53 341.79 113.88 340.04 115.80&#10;  C 335.96 120.26 328.55 126.95 323.72 131.80&#10;  Q 288.62 167.07 256.16 199.15&#10;  Q 253.92 201.36 251.85 199.34&#10;  Q 231.49 179.50 208.22 156.59&#10;  C 200.61 149.10 194.54 153.86 188.72 159.72&#10;  Q 121.60 227.34 74.70 274.20&#10;  Q 67.85 281.03 72.82 289.55&#10;  Q 76.69 296.18 83.14 298.86&#10;  C 90.47 301.91 95.70 297.85 100.67 292.91&#10;  Q 152.53 241.34 186.63 207.13&#10;  Q 190.72 203.03 197.00 196.50&#10;  Q 198.67 194.76 199.91 194.16&#10;  A 1.21 1.20 -38.8 0 1 201.18 194.29&#10;  Q 203.13 195.80 203.99 196.67&#10;  Q 218.83 211.64 244.02 236.48&#10;  C 248.95 241.34 255.32 242.99 261.27 238.77&#10;  Q 263.69 237.05 266.24 234.49&#10;  C 296.91 203.79 329.17 172.22 361.48 140.18&#10;  C 363.65 138.02 365.14 135.97 367.70 138.53&#10;  Q 374.73 145.58 380.18 151.06&#10;  Q 383.36 154.27 388.25 155.04"/>
<path stroke="#fdfcfc" stroke-opacity="0.976" d="&#10;  M 388.25 155.04&#10;  Q 394.94 155.91 403.51 158.93&#10;  Q 418.69 164.28 428.66 175.82"/>
<path stroke="#8fd4d6" stroke-opacity="0.992" d="&#10;  M 428.66 175.82&#10;  Q 426.04 174.97 423.75 174.97&#10;  Q 395.76 175.01 383.76 174.97&#10;  Q 376.68 174.95 372.68 181.61&#10;  C 371.12 184.21 371.02 187.46 371.02 190.75&#10;  Q 370.94 260.63 371.00 330.55"/>
<path stroke="#80878f" stroke-opacity="0.992" d="&#10;  M 371.00 330.55&#10;  L 349.96 331.07"/>
<path stroke="#8fd4d6" stroke-opacity="0.992" d="&#10;  M 349.96 331.07&#10;  Q 350.06 287.95 349.99 245.25&#10;  Q 349.98 239.22 345.13 236.28&#10;  Q 342.51 234.70 334.60 234.86&#10;  Q 323.52 235.08 299.83 234.92&#10;  C 296.94 234.91 292.86 234.70 290.69 235.66&#10;  Q 284.62 238.36 284.61 245.50&#10;  Q 284.56 288.09 284.70 331.09"/>
<path stroke="#80878f" stroke-opacity="0.992" d="&#10;  M 284.70 331.09&#10;  L 261.99 331.03"/>
<path stroke="#8fd4d6" stroke-opacity="0.992" d="&#10;  M 261.99 331.03&#10;  Q 262.18 294.49 262.00 280.50&#10;  C 261.87 270.88 255.26 269.71 246.56 269.86&#10;  Q 235.43 270.06 211.28 269.80&#10;  Q 203.22 269.71 200.82 271.13&#10;  Q 196.12 273.94 195.98 280.06&#10;  Q 195.67 293.14 195.88 309.52&#10;  A 1.33 1.33 0.0 0 0 196.74 310.75&#10;  Q 214.48 317.29 228.95 330.95"/>
<path stroke="#80878f" stroke-opacity="0.992" d="&#10;  M 228.95 330.95&#10;  L 205.65 330.85&#10;  A 8.56 8.47 -32.1 0 1 202.11 330.06&#10;  Q 195.47 326.98 185.05 324.67&#10;  Q 179.85 323.51 167.40 323.71&#10;  Q 165.65 323.73 148.77 323.75&#10;  C 127.49 323.77 104.45 333.21 86.90 345.93&#10;  C 64.81 361.94 51.61 383.65 44.51 409.77&#10;  Q 38.48 431.99 34.07 453.02&#10;  Q 24.51 498.58 18.33 544.68"/>
<path stroke="#839ba9" stroke-opacity="0.992" d="&#10;  M 18.33 544.68&#10;  Q 16.37 565.28 24.97 583.74"/>
<path stroke="#80878f" stroke-opacity="0.992" d="&#10;  M 24.97 583.74&#10;  Q 32.69 599.83 47.28 610.21"/>
<path stroke="#fcfbfb" stroke-opacity="0.961" d="&#10;  M 47.28 610.21&#10;  Q 46.00 609.93 45.66 610.45&#10;  Q 44.96 611.53 46.03 613.16&#10;  Q 46.37 613.68 46.59 613.81&#10;  A 0.25 0.25 0.0 0 1 46.41 614.27&#10;  L 37.31 612.27"/>
<path stroke="#f2f1f0" stroke-opacity="0.851" d="&#10;  M 21.27 594.49&#10;  Q 21.25 593.95 20.69 593.97"/>
<path stroke="#80878f" stroke-opacity="0.992" d="&#10;  M 1.64 522.21&#10;  Q 1.57 521.82 1.71 521.53"/>
<path stroke="#fdfcfc" stroke-opacity="0.976" d="&#10;  M 373.12 71.49&#10;  L 388.26 72.68&#10;  A 0.04 0.04 0.0 0 0 388.30 72.65&#10;  L 388.33 72.26&#10;  A 0.61 0.20 -85.5 0 0 388.18 71.63&#10;  L 373.36 70.47&#10;  A 0.61 0.20 -85.5 0 0 373.12 71.06&#10;  L 373.09 71.45&#10;  A 0.04 0.04 0.0 0 0 373.12 71.49"/>
<path stroke="#fac88a" stroke-opacity="0.976" d="&#10;  M 402.76 75.77&#10;  Q 405.95 78.90 405.46 83.74&#10;  Q 402.81 109.80 399.70 140.00&#10;  C 399.37 143.17 399.22 147.11 397.70 149.73&#10;  Q 394.73 154.84 388.25 155.04"/>
<path stroke="#7b8289" stroke-opacity="0.976" d="&#10;  M 480.71 632.63&#10;  Q 480.20 632.69 479.77 632.53"/>
<path stroke="#7b8289" stroke-opacity="0.976" d="&#10;  M 98.94 621.19&#10;  Q 102.44 620.13 106.13 619.00&#10;  Q 116.59 615.81 124.73 609.96&#10;  C 133.82 603.44 140.05 596.72 147.11 587.43&#10;  C 158.00 573.08 164.54 564.14 171.18 555.66"/>
<path stroke="#7b8289" stroke-opacity="0.976" d="&#10;  M 305.97 526.06&#10;  Q 345.60 525.87 360.02 526.15&#10;  Q 368.01 526.30 376.47 530.48&#10;  C 380.76 532.61 386.95 538.01 389.34 541.15&#10;  Q 393.26 546.31 397.69 551.59"/>
<path stroke="#7f96a4" stroke-opacity="0.976" d="&#10;  M 397.69 551.59&#10;  Q 406.23 563.57 424.33 587.67&#10;  Q 432.70 598.82 441.71 605.58"/>
<path stroke="#7b8289" stroke-opacity="0.976" d="&#10;  M 441.71 605.58&#10;  Q 451.14 614.00 462.62 618.16&#10;  C 489.62 627.96 518.34 620.25 536.88 598.67&#10;  C 550.57 582.74 555.83 561.42 552.90 540.53&#10;  Q 543.54 473.74 529.15 416.58&#10;  Q 525.89 403.63 522.54 394.73&#10;  Q 511.28 364.81 485.34 345.68&#10;  Q 466.84 332.04 443.87 326.53&#10;  Q 440.39 325.69 437.08 324.92"/>
<path stroke="#8bd0d2" stroke-opacity="0.976" d="&#10;  M 437.08 324.92&#10;  Q 437.19 255.80 437.07 187.00&#10;  Q 437.05 178.96 428.66 175.82"/>
<path stroke="#105b66" stroke-opacity="0.992" d="&#10;  M 437.08 324.92&#10;  C 423.79 323.53 413.72 323.75 398.25 323.91&#10;  Q 386.56 324.02 372.83 330.05&#10;  Q 372.19 330.33 371.00 330.55"/>
<path stroke="#6c737b" stroke-opacity="0.914" d="&#10;  M 568.78 237.76&#10;  Q 569.00 237.71 568.71 237.97"/>
<path stroke="#6c737b" stroke-opacity="0.914" d="&#10;  M 568.85 260.96&#10;  L 568.78 264.46"/>
<path stroke="#708998" stroke-opacity="0.914" d="&#10;  M 556.56 462.03&#10;  Q 556.28 463.00 556.69 463.78"/>
<path stroke="#6c737b" stroke-opacity="0.914" d="&#10;  M 557.49 468.72&#10;  Q 557.50 469.93 557.92 470.84"/>
<path stroke="#6c737b" stroke-opacity="0.914" d="&#10;  M 559.71 478.18&#10;  Q 559.42 478.34 559.96 478.76"/>
<path stroke="#105b66" stroke-opacity="0.992" d="&#10;  M 349.96 331.07&#10;  L 284.70 331.09"/>
<path stroke="#5d656d" stroke-opacity="0.851" d="&#10;  M 568.74 238.48&#10;  Q 568.93 238.51 568.71 237.97"/>
<path stroke="#5d656d" stroke-opacity="0.851" d="&#10;  M 568.85 273.21&#10;  L 568.82 274.73"/>
<path stroke="#5d656d" stroke-opacity="0.851" d="&#10;  M 569.86 305.77&#10;  L 570.27 320.45"/>
<path stroke="#617c8c" stroke-opacity="0.851" d="&#10;  M 568.90 438.97&#10;  Q 567.94 440.44 567.00 439.45&#10;  Q 566.42 438.85 565.97 438.87&#10;  Q 565.75 438.87 565.69 438.91&#10;  A 0.08 0.08 0.0 0 0 565.66 439.03&#10;  Q 566.80 440.63 568.49 441.82"/>
<path stroke="#105b66" stroke-opacity="0.992" d="&#10;  M 261.99 331.03&#10;  L 228.95 330.95"/>
<path stroke="#042239" stroke-opacity="0.992" d="&#10;  M 441.71 605.58&#10;  Q 457.77 616.59 472.23 619.76&#10;  Q 481.36 621.76 489.49 621.19&#10;  Q 509.78 619.76 525.62 607.79&#10;  Q 538.67 597.94 545.51 583.86&#10;  Q 552.75 568.95 552.54 553.51&#10;  Q 552.45 546.67 552.46 546.24&#10;  C 552.53 542.29 551.19 537.94 551.09 534.45&#10;  C 551.05 533.00 550.30 532.03 550.39 530.16&#10;  Q 550.45 529.03 550.09 526.89&#10;  Q 546.88 507.47 544.14 491.77&#10;  Q 537.65 454.68 528.67 418.91&#10;  Q 527.08 412.58 525.59 407.64&#10;  Q 523.11 399.39 522.07 396.50&#10;  Q 517.56 383.97 508.91 371.09&#10;  C 506.27 367.16 503.61 364.44 500.37 360.62&#10;  Q 494.46 353.63 484.44 346.36&#10;  Q 466.14 333.08 443.95 327.42&#10;  Q 435.06 325.16 423.37 324.80&#10;  Q 414.40 324.52 402.46 324.71&#10;  C 398.85 324.77 396.21 325.27 393.63 325.36&#10;  Q 390.49 325.47 387.09 326.36&#10;  Q 378.36 328.64 371.77 331.39&#10;  A 5.29 5.26 -57.9 0 1 370.00 331.80&#10;  Q 362.85 332.20 361.25 332.17&#10;  Q 336.84 331.76 313.57 331.98&#10;  Q 280.04 332.30 269.65 332.04&#10;  Q 250.75 331.55 234.13 331.95&#10;  Q 215.97 332.38 204.00 331.61&#10;  A 3.60 3.56 -32.3 0 1 203.05 331.40&#10;  C 197.09 329.10 190.77 326.45 185.00 326.03&#10;  C 182.35 325.84 179.86 324.59 177.00 324.62&#10;  C 162.50 324.75 148.78 323.74 135.75 326.08&#10;  Q 117.52 329.35 100.95 338.49&#10;  Q 90.48 344.27 79.57 353.32&#10;  Q 74.53 357.49 68.72 364.49&#10;  Q 61.27 373.47 56.86 381.37&#10;  Q 52.76 388.70 49.77 396.66&#10;  Q 47.27 403.31 44.74 412.74&#10;  Q 35.75 446.18 29.26 482.63&#10;  Q 26.47 498.26 23.81 514.07&#10;  Q 21.28 529.15 19.35 545.67&#10;  A 0.38 0.38 0.0 0 1 18.61 545.73&#10;  L 18.33 544.68"/>
<path stroke="#042239" stroke-opacity="0.992" d="&#10;  M 397.69 551.59&#10;  Q 394.68 545.70 390.24 540.59&#10;  Q 388.50 538.58 385.57 536.09&#10;  Q 381.17 532.34 380.63 531.91&#10;  C 374.75 527.22 364.97 525.11 357.24 525.11&#10;  Q 293.62 525.10 219.25 525.03&#10;  C 216.30 525.03 210.66 525.12 206.67 525.79&#10;  Q 193.57 527.99 184.32 537.93&#10;  C 180.71 541.81 176.31 547.42 172.38 552.61&#10;  Q 158.77 570.55 146.51 587.25&#10;  Q 146.29 587.56 140.47 594.46&#10;  Q 129.86 607.04 115.10 614.50&#10;  Q 100.96 621.65 81.98 621.40&#10;  Q 80.71 621.38 76.46 620.63&#10;  C 70.86 619.63 66.22 618.64 61.52 616.57&#10;  Q 58.01 615.01 52.73 612.14&#10;  Q 45.35 608.13 39.34 602.25&#10;  Q 35.22 598.23 32.08 593.44&#10;  Q 28.83 588.49 26.23 583.44&#10;  A 0.60 0.60 0.0 0 0 25.20 583.38&#10;  L 24.97 583.74"/>
<path stroke="#7c3f3d" stroke-opacity="0.992" d="&#10;  M 444.0778 394.0433&#10;  A 22.68 22.03 -0.8 0 0 421.0924 372.3321&#10;  A 22.68 22.03 -0.8 0 0 398.7222 394.6767&#10;  A 22.68 22.03 -0.8 0 0 421.7076 416.3879&#10;  A 22.68 22.03 -0.8 0 0 444.0778 394.0433"/>
<path stroke="#1a707a" stroke-opacity="0.992" d="&#10;  M 167.18 484.43&#10;  L 167.27 470.00"/>
<path stroke="#042239" stroke-opacity="0.992" d="&#10;  M 167.27 470.00&#10;  C 168.88 467.05 168.34 460.38 168.47 458.72&#10;  A 3.33 3.31 -31.6 0 1 168.72 457.68&#10;  Q 170.35 453.79 175.26 453.86&#10;  Q 186.25 454.01 197.67 453.70&#10;  Q 201.42 453.60 203.11 452.44&#10;  C 207.59 449.36 208.86 446.53 208.93 440.25&#10;  Q 209.02 431.79 208.82 425.53&#10;  A 4.85 4.84 33.6 0 0 208.51 424.00&#10;  Q 205.36 415.78 196.95 415.72&#10;  Q 190.03 415.67 172.67 415.46&#10;  Q 169.07 415.42 168.61 411.65&#10;  A 0.53 0.51 -78.5 0 0 168.36 411.26&#10;  Q 167.72 410.85 167.47 411.58"/>
<path stroke="#1a707a" stroke-opacity="0.992" d="&#10;  M 167.47 411.58&#10;  L 166.79 383.18"/>
<path stroke="#042239" stroke-opacity="0.992" d="&#10;  M 166.79 383.18&#10;  Q 164.83 376.01 156.50 375.55&#10;  Q 151.35 375.27 142.85 375.54&#10;  Q 138.07 375.70 135.79 376.78&#10;  C 129.34 379.83 129.17 384.60 129.30 392.21&#10;  Q 129.33 393.64 129.22 402.15&#10;  C 129.17 405.67 128.54 409.64 128.22 412.47&#10;  A 2.97 2.97 0.0 0 1 125.34 415.09&#10;  C 122.25 415.17 119.05 415.61 115.87 415.63&#10;  Q 103.29 415.70 100.72 415.95&#10;  Q 91.64 416.87 89.66 425.19&#10;  A 3.29 3.16 52.0 0 0 89.59 425.86&#10;  L 89.59 444.42&#10;  A 1.74 1.53 41.4 0 0 89.64 444.82&#10;  Q 90.88 449.72 95.11 452.44&#10;  Q 97.12 453.74 104.25 453.74&#10;  Q 115.09 453.76 123.55 453.97&#10;  C 127.40 454.06 128.36 455.68 128.67 459.39&#10;  Q 129.61 470.48 129.33 480.75&#10;  Q 129.21 485.29 130.04 487.25&#10;  Q 131.44 490.55 134.40 492.67&#10;  A 2.00 1.81 69.8 0 0 134.80 492.88&#10;  L 138.67 494.21&#10;  Q 138.70 494.22 138.73 494.23&#10;  Q 154.21 494.63 157.75 494.19&#10;  Q 162.90 493.54 165.88 489.89&#10;  Q 167.86 487.46 167.18 484.43"/>
<path stroke="#175c60" stroke-opacity="0.992" d="&#10;  M 166.79 383.18&#10;  Q 163.65 376.97 158.00 376.49&#10;  Q 154.62 376.20 146.11 376.31&#10;  Q 137.08 376.42 134.68 377.96&#10;  Q 129.88 381.06 130.04 388.26&#10;  Q 130.09 390.10 130.03 406.52&#10;  C 130.00 412.74 129.13 416.90 122.24 416.78&#10;  Q 110.70 416.58 101.52 416.69&#10;  Q 94.86 416.76 91.94 421.41&#10;  Q 90.25 424.11 90.30 430.84&#10;  Q 90.38 442.25 90.39 443.03&#10;  Q 90.51 448.40 95.01 451.48&#10;  Q 97.46 453.15 104.34 453.04&#10;  Q 110.74 452.94 120.87 452.86&#10;  C 125.83 452.82 129.50 453.57 129.87 459.07&#10;  Q 130.15 463.35 130.12 482.42&#10;  C 130.12 486.82 131.52 489.80 135.01 492.13&#10;  Q 137.07 493.51 143.24 493.45&#10;  Q 150.12 493.40 158.54 493.33&#10;  A 4.28 4.09 -51.5 0 0 159.49 493.20&#10;  Q 165.93 491.47 167.18 484.43"/>
<path stroke="#175c60" stroke-opacity="0.992" d="&#10;  M 167.47 411.58&#10;  C 168.43 415.79 171.74 416.81 175.86 416.73&#10;  Q 181.42 416.62 195.25 416.58&#10;  C 201.45 416.57 206.79 418.57 207.85 425.27&#10;  Q 208.32 428.25 208.01 441.99&#10;  C 207.90 446.48 206.58 449.30 203.25 451.61&#10;  Q 201.20 453.02 195.14 452.99&#10;  Q 187.56 452.94 177.84 452.87&#10;  C 172.12 452.83 167.81 453.30 167.52 459.75&#10;  Q 167.30 464.83 167.27 470.00"/>
<path stroke="#7c3f3d" stroke-opacity="0.992" d="&#10;  M 399.1841 435.3421&#10;  A 22.64 22.20 -5.8 0 0 374.4166 415.5436&#10;  A 22.64 22.20 -5.8 0 0 354.1359 439.9179&#10;  A 22.64 22.20 -5.8 0 0 378.9034 459.7164&#10;  A 22.64 22.20 -5.8 0 0 399.1841 435.3421"/>
<path stroke="#7c3f3d" stroke-opacity="0.992" d="&#10;  M 489.4620 435.4627&#10;  A 22.62 22.15 -5.6 0 0 464.7885 415.6257&#10;  A 22.62 22.15 -5.6 0 0 444.4380 439.8773&#10;  A 22.62 22.15 -5.6 0 0 469.1115 459.7143&#10;  A 22.62 22.15 -5.6 0 0 489.4620 435.4627"/>
<path stroke="#7c3f3d" stroke-opacity="0.992" d="&#10;  M 444.0362 480.1499&#10;  A 22.64 22.20 -2.0 0 0 420.6352 458.7535&#10;  A 22.64 22.20 -2.0 0 0 398.7838 481.7301&#10;  A 22.64 22.20 -2.0 0 0 422.1848 503.1265&#10;  A 22.64 22.20 -2.0 0 0 444.0362 480.1499"/>
<path stroke="#5d656d" stroke-opacity="0.851" d="&#10;  M 557.59 467.98&#10;  L 557.49 468.72"/>
<path stroke="#787e87" stroke-opacity="0.961" d="&#10;  M 305.97 526.06&#10;  Q 264.41 525.91 222.88 526.07&#10;  Q 208.31 526.12 203.10 527.49&#10;  Q 193.31 530.06 186.10 537.34&#10;  Q 179.38 544.13 171.18 555.66"/>
<path stroke="#787e87" stroke-opacity="0.961" d="&#10;  M 98.94 621.19&#10;  Q 70.44 626.30 47.28 610.21"/>
</g>
<path fill="#1fa8ad" fill-opacity="0.992" d="&#10;  M 649.00 126.52&#10;  L 649.00 129.00&#10;  Q 647.50 135.42 646.64 137.13&#10;  Q 645.96 138.48 643.34 141.65&#10;  Q 641.66 143.68 639.55 145.75&#10;  C 619.38 165.51 598.11 186.23 577.52 207.52&#10;  Q 574.02 211.14 571.12 215.16&#10;  Q 571.11 214.95 571.11 214.74&#10;  Q 568.02 216.58 566.06 218.96&#10;  Q 562.08 222.81 560.29 224.04&#10;  Q 549.87 231.21 539.01 225.46&#10;  Q 535.63 223.35 532.89 220.61&#10;  Q 434.55 122.49 431.46 119.42&#10;  Q 425.95 113.98 424.20 109.68&#10;  Q 421.85 103.92 422.19 98.75&#10;  Q 422.54 93.35 423.82 78.70&#10;  Q 423.90 71.44 424.89 64.23&#10;  Q 425.21 61.94 424.72 52.90&#10;  Q 427.05 43.16 427.09 32.46&#10;  C 427.10 28.17 427.85 24.50 428.15 20.46&#10;  A 2.15 1.83 -40.5 0 1 428.22 20.02&#10;  L 429.11 16.60&#10;  A 5.25 5.16 69.1 0 1 429.77 15.09&#10;  Q 431.96 11.64 435.70 9.76&#10;  Q 437.96 8.62 443.43 8.07&#10;  Q 447.94 7.62 452.42 7.10&#10;  Q 456.21 7.80 457.38 6.34&#10;  L 464.30 6.03&#10;  A 2.94 2.57 -48.8 0 0 464.82 5.96&#10;  Q 469.09 5.09 473.50 5.02&#10;  C 474.60 5.00 476.72 4.33 478.09 4.28&#10;  Q 486.05 4.02 494.35 2.69&#10;  Q 498.18 2.07 500.68 2.07&#10;  Q 503.48 2.06 504.92 1.69&#10;  C 507.98 0.88 511.14 1.22 514.40 0.65&#10;  C 517.30 0.14 522.05 -0.23 523.87 0.38&#10;  Q 527.82 1.71 529.76 2.20&#10;  A 2.67 2.63 -20.2 0 1 530.66 2.61&#10;  Q 535.13 5.81 537.40 8.10&#10;  Q 589.38 60.42 642.43 113.33&#10;  Q 647.32 118.21 649.00 126.52&#10;  Z&#10;  M 486.6698 54.0134&#10;  A 15.23 15.04 -27.9 0 0 466.1723 47.8482&#10;  A 15.23 15.04 -27.9 0 0 459.7502 68.2666&#10;  A 15.23 15.04 -27.9 0 0 480.2477 74.4318&#10;  A 15.23 15.04 -27.9 0 0 486.6698 54.0134&#10;  Z&#10;  M 564.41 160.05&#10;  Q 567.05 162.72 570.73 166.17&#10;  Q 574.87 170.08 578.72 166.02&#10;  Q 581.63 162.94 583.30 160.04&#10;  C 585.83 155.64 579.83 151.21 576.49 148.12&#10;  A 1.53 1.53 0.0 0 1 576.30 146.11&#10;  C 581.91 138.33 584.25 129.57 580.67 120.29&#10;  Q 578.52 114.73 572.66 110.40&#10;  C 564.71 104.51 552.56 104.34 544.04 108.78&#10;  C 537.17 112.36 532.88 115.32 526.46 115.89&#10;  C 521.67 116.31 516.68 113.41 516.02 108.40&#10;  C 514.90 99.87 523.79 94.07 531.15 91.87&#10;  Q 534.13 90.98 538.15 90.03&#10;  A 2.20 2.20 0.0 0 0 539.85 87.98&#10;  Q 540.05 83.40 539.94 79.23&#10;  C 539.65 68.89 523.49 76.88 519.23 79.59&#10;  A 1.93 1.93 0.0 0 1 516.79 79.30&#10;  Q 512.21 74.55 509.69 72.31&#10;  Q 505.82 68.87 502.32 72.46&#10;  C 498.85 76.03 494.36 80.31 498.13 84.53&#10;  Q 500.22 86.87 504.54 90.85&#10;  A 1.22 1.21 -53.2 0 1 504.76 92.37&#10;  C 502.53 96.13 499.89 100.68 499.38 104.74&#10;  Q 498.40 112.67 499.83 116.69&#10;  Q 502.62 124.49 508.42 128.39&#10;  C 516.84 134.05 528.84 135.01 537.95 129.31&#10;  C 544.28 125.34 555.49 118.81 562.26 125.23&#10;  C 566.87 129.59 565.44 134.97 561.79 139.51&#10;  Q 553.40 149.95 540.75 150.73&#10;  Q 538.05 150.89 538.12 154.02&#10;  Q 538.13 154.87 538.10 161.77&#10;  C 538.08 165.28 540.10 167.83 543.40 167.75&#10;  C 551.08 167.56 557.02 164.25 563.22 159.95&#10;  A 0.93 0.93 0.0 0 1 564.41 160.05&#10;  Z"/>
<path fill="#073653" fill-opacity="0.992" d="&#10;  M 457.38 6.34&#10;  Q 456.21 7.80 452.42 7.10&#10;  L 457.38 6.34&#10;  Z"/>
<ellipse fill="#fbf9f8" fill-opacity="0.961" cx="0.00" cy="0.00" transform="translate(473.21,61.14) rotate(-27.9)" rx="15.23" ry="15.04"/>
<path fill="#ecebea" fill-opacity="0.835" d="&#10;  M 424.72 52.90&#10;  Q 425.21 61.94 424.89 64.23&#10;  Q 423.90 71.44 423.82 78.70&#10;  L 422.23 78.94&#10;  C 416.45 78.97 411.02 77.08 405.22 76.71&#10;  L 403.25 74.66&#10;  C 397.43 70.62 390.38 70.61 382.73 69.25&#10;  A 1.35 1.34 -9.0 0 1 381.76 68.55&#10;  Q 381.13 67.39 379.45 66.75&#10;  L 390.03 63.17&#10;  L 390.98 63.09&#10;  L 394.14 62.62&#10;  Q 404.36 64.89 413.80 68.93&#10;  A 3.00 2.85 77.8 0 1 414.71 69.55&#10;  Q 415.69 70.54 417.98 70.45&#10;  A 0.33 0.33 0.0 0 0 418.12 69.83&#10;  Q 418.10 69.82 415.95 69.75&#10;  A 0.11 0.09 13.1 0 1 415.85 69.61&#10;  Q 415.86 69.58 415.89 69.57&#10;  A 0.36 0.26 27.2 0 1 416.14 69.53&#10;  Q 417.59 69.82 418.52 69.37&#10;  A 1.20 1.19 -6.7 0 0 419.15 68.58&#10;  Q 419.95 65.19 419.58 61.70&#10;  L 424.72 52.90&#10;  Z"/>
<path fill="#dfdedc" fill-opacity="0.710" d="&#10;  M 394.14 62.62&#10;  Q 399.40 61.99 404.51 63.10&#10;  Q 407.43 63.74 408.33 63.62&#10;  A 0.55 0.55 0.0 0 1 408.91 63.97&#10;  Q 409.16 64.65 409.80 64.63&#10;  Q 412.94 64.49 414.15 64.74&#10;  A 0.13 0.13 0.0 0 1 414.12 64.99&#10;  Q 411.66 64.94 411.37 64.67&#10;  A 0.16 0.16 0.0 0 0 411.10 64.80&#10;  Q 411.13 65.10 411.53 65.26&#10;  Q 411.81 65.37 412.11 65.29&#10;  Q 415.29 64.42 415.56 67.07&#10;  A 0.67 0.67 0.0 0 0 416.28 67.67&#10;  Q 416.78 67.62 417.31 67.57&#10;  A 0.31 0.15 -4.7 0 1 417.65 67.70&#10;  Q 417.65 67.74 417.66 67.79&#10;  A 0.09 0.09 0.0 0 1 417.52 67.88&#10;  Q 417.24 67.69 417.03 67.78&#10;  A 0.30 0.30 0.0 0 0 417.05 68.34&#10;  Q 417.48 68.49 418.09 68.03&#10;  A 0.60 0.58 72.0 0 0 418.33 67.53&#10;  Q 418.25 64.51 419.58 61.70&#10;  Q 419.95 65.19 419.15 68.58&#10;  A 1.20 1.19 -6.7 0 1 418.52 69.37&#10;  Q 417.59 69.82 416.14 69.53&#10;  A 0.36 0.26 27.2 0 0 415.89 69.57&#10;  Q 415.86 69.58 415.85 69.61&#10;  A 0.11 0.09 13.1 0 0 415.95 69.75&#10;  Q 418.10 69.82 418.12 69.83&#10;  A 0.33 0.33 0.0 0 1 417.98 70.45&#10;  Q 415.69 70.54 414.71 69.55&#10;  A 3.00 2.85 77.8 0 0 413.80 68.93&#10;  Q 404.36 64.89 394.14 62.62&#10;  Z"/>
<path fill="#000e1e" fill-opacity="0.992" d="&#10;  M 390.98 63.09&#10;  L 390.03 63.17&#10;  L 390.98 63.09&#10;  Z"/>
<path fill="#f9f7f7" fill-opacity="0.925" d="&#10;  M 379.45 66.75&#10;  Q 381.13 67.39 381.76 68.55&#10;  A 1.35 1.34 -9.0 0 0 382.73 69.25&#10;  C 390.38 70.61 397.43 70.62 403.25 74.66&#10;  Q 402.87 75.08 402.76 75.77&#10;  C 398.98 72.17 394.80 73.71 390.34 74.17&#10;  Q 391.56 74.14 390.71 71.94&#10;  A 0.39 0.39 0.0 0 1 391.02 71.41&#10;  C 391.56 71.34 392.08 71.41 392.63 71.37&#10;  C 389.15 71.04 385.67 70.77 382.18 70.58&#10;  A 1.17 1.15 59.7 0 1 381.67 70.44&#10;  L 375.54 67.21&#10;  L 379.45 66.75&#10;  Z"/>
<path fill="#ecebea" fill-opacity="0.835" d="&#10;  M 371.96 67.36&#10;  L 371.01 67.43&#10;  L 371.96 67.36&#10;  Z"/>
<path fill="#ffffff" fill-opacity="0.992" d="&#10;  M 375.54 67.21&#10;  L 381.67 70.44&#10;  A 1.17 1.15 59.7 0 0 382.18 70.58&#10;  C 385.67 70.77 389.15 71.04 392.63 71.37&#10;  C 392.08 71.41 391.56 71.34 391.02 71.41&#10;  A 0.39 0.39 0.0 0 0 390.71 71.94&#10;  Q 391.56 74.14 390.34 74.17&#10;  Q 369.42 77.15 348.62 80.27&#10;  C 342.87 81.12 337.31 81.38 332.33 82.81&#10;  C 324.51 85.07 322.88 93.32 328.16 99.11&#10;  Q 332.23 103.57 339.44 110.76&#10;  C 341.22 112.53 341.79 113.88 340.04 115.80&#10;  C 335.96 120.26 328.55 126.95 323.72 131.80&#10;  Q 288.62 167.07 256.16 199.15&#10;  Q 253.92 201.36 251.85 199.34&#10;  Q 231.49 179.50 208.22 156.59&#10;  C 200.61 149.10 194.54 153.86 188.72 159.72&#10;  Q 121.60 227.34 74.70 274.20&#10;  Q 67.85 281.03 72.82 289.55&#10;  Q 76.69 296.18 83.14 298.86&#10;  C 90.47 301.91 95.70 297.85 100.67 292.91&#10;  Q 152.53 241.34 186.63 207.13&#10;  Q 190.72 203.03 197.00 196.50&#10;  Q 198.67 194.76 199.91 194.16&#10;  A 1.21 1.20 -38.8 0 1 201.18 194.29&#10;  Q 203.13 195.80 203.99 196.67&#10;  Q 218.83 211.64 244.02 236.48&#10;  C 248.95 241.34 255.32 242.99 261.27 238.77&#10;  Q 263.69 237.05 266.24 234.49&#10;  C 296.91 203.79 329.17 172.22 361.48 140.18&#10;  C 363.65 138.02 365.14 135.97 367.70 138.53&#10;  Q 374.73 145.58 380.18 151.06&#10;  Q 383.36 154.27 388.25 155.04&#10;  Q 394.94 155.91 403.51 158.93&#10;  Q 418.69 164.28 428.66 175.82&#10;  Q 426.04 174.97 423.75 174.97&#10;  Q 395.76 175.01 383.76 174.97&#10;  Q 376.68 174.95 372.68 181.61&#10;  C 371.12 184.21 371.02 187.46 371.02 190.75&#10;  Q 370.94 260.63 371.00 330.55&#10;  L 349.96 331.07&#10;  Q 350.06 287.95 349.99 245.25&#10;  Q 349.98 239.22 345.13 236.28&#10;  Q 342.51 234.70 334.60 234.86&#10;  Q 323.52 235.08 299.83 234.92&#10;  C 296.94 234.91 292.86 234.70 290.69 235.66&#10;  Q 284.62 238.36 284.61 245.50&#10;  Q 284.56 288.09 284.70 331.09&#10;  L 261.99 331.03&#10;  Q 262.18 294.49 262.00 280.50&#10;  C 261.87 270.88 255.26 269.71 246.56 269.86&#10;  Q 235.43 270.06 211.28 269.80&#10;  Q 203.22 269.71 200.82 271.13&#10;  Q 196.12 273.94 195.98 280.06&#10;  Q 195.67 293.14 195.88 309.52&#10;  A 1.33 1.33 0.0 0 0 196.74 310.75&#10;  Q 214.48 317.29 228.95 330.95&#10;  L 205.65 330.85&#10;  A 8.56 8.47 -32.1 0 1 202.11 330.06&#10;  Q 195.47 326.98 185.05 324.67&#10;  Q 179.85 323.51 167.40 323.71&#10;  Q 165.65 323.73 148.77 323.75&#10;  C 127.49 323.77 104.45 333.21 86.90 345.93&#10;  C 64.81 361.94 51.61 383.65 44.51 409.77&#10;  Q 38.48 431.99 34.07 453.02&#10;  Q 24.51 498.58 18.33 544.68&#10;  Q 16.37 565.28 24.97 583.74&#10;  Q 32.69 599.83 47.28 610.21&#10;  Q 46.00 609.93 45.66 610.45&#10;  Q 44.96 611.53 46.03 613.16&#10;  Q 46.37 613.68 46.59 613.81&#10;  A 0.25 0.25 0.0 0 1 46.41 614.27&#10;  L 37.31 612.27&#10;  C 30.85 608.36 25.52 600.63 21.27 594.49&#10;  Q 21.25 593.95 20.69 593.97&#10;  Q 13.29 583.28 8.59 571.11&#10;  Q 6.08 564.62 4.19 556.15&#10;  C 1.57 544.36 1.16 535.47 1.64 522.21&#10;  Q 1.57 521.82 1.71 521.53&#10;  C 1.51 502.39 2.19 479.49 2.06 464.15&#10;  C 1.77 431.37 2.14 408.17 1.68 377.51&#10;  Q 1.43 360.47 1.35 333.50&#10;  Q 1.10 255.07 1.30 175.25&#10;  Q 1.31 167.62 2.42 159.57&#10;  C 3.12 154.43 5.35 147.36 7.20 141.70&#10;  C 14.50 119.32 30.75 101.33 50.83 88.83&#10;  C 70.09 76.85 93.99 74.65 115.97 74.39&#10;  Q 119.94 74.34 161.66 74.28&#10;  C 194.41 74.23 223.27 74.89 253.32 75.25&#10;  Q 272.70 75.48 282.70 75.90&#10;  Q 289.83 76.20 312.03 75.75&#10;  Q 315.16 75.69 338.06 71.92&#10;  C 342.14 71.24 345.77 71.13 349.90 71.13&#10;  C 357.05 71.12 363.77 68.12 371.01 67.43&#10;  L 371.96 67.36&#10;  L 375.54 67.21&#10;  Z&#10;  M 373.12 71.49&#10;  L 388.26 72.68&#10;  A 0.04 0.04 0.0 0 0 388.30 72.65&#10;  L 388.33 72.26&#10;  A 0.61 0.20 -85.5 0 0 388.18 71.63&#10;  L 373.36 70.47&#10;  A 0.61 0.20 -85.5 0 0 373.12 71.06&#10;  L 373.09 71.45&#10;  A 0.04 0.04 0.0 0 0 373.12 71.49&#10;  Z"/>
<path fill="#fbf9f8" fill-opacity="0.961" d="&#10;  M 373.12 71.49&#10;  A 0.04 0.04 0.0 0 1 373.09 71.45&#10;  L 373.12 71.06&#10;  A 0.61 0.20 -85.5 0 1 373.36 70.47&#10;  L 388.18 71.63&#10;  A 0.61 0.20 -85.5 0 1 388.33 72.26&#10;  L 388.30 72.65&#10;  A 0.04 0.04 0.0 0 1 388.26 72.68&#10;  L 373.12 71.49&#10;  Z"/>
<path fill="#ffffff" fill-opacity="0.992" d="&#10;  M 564.41 160.05&#10;  A 0.93 0.93 0.0 0 0 563.22 159.95&#10;  C 557.02 164.25 551.08 167.56 543.40 167.75&#10;  C 540.10 167.83 538.08 165.28 538.10 161.77&#10;  Q 538.13 154.87 538.12 154.02&#10;  Q 538.05 150.89 540.75 150.73&#10;  Q 553.40 149.95 561.79 139.51&#10;  C 565.44 134.97 566.87 129.59 562.26 125.23&#10;  C 555.49 118.81 544.28 125.34 537.95 129.31&#10;  C 528.84 135.01 516.84 134.05 508.42 128.39&#10;  Q 502.62 124.49 499.83 116.69&#10;  Q 498.40 112.67 499.38 104.74&#10;  C 499.89 100.68 502.53 96.13 504.76 92.37&#10;  A 1.22 1.21 -53.2 0 0 504.54 90.85&#10;  Q 500.22 86.87 498.13 84.53&#10;  C 494.36 80.31 498.85 76.03 502.32 72.46&#10;  Q 505.82 68.87 509.69 72.31&#10;  Q 512.21 74.55 516.79 79.30&#10;  A 1.93 1.93 0.0 0 0 519.23 79.59&#10;  C 523.49 76.88 539.65 68.89 539.94 79.23&#10;  Q 540.05 83.40 539.85 87.98&#10;  A 2.20 2.20 0.0 0 1 538.15 90.03&#10;  Q 534.13 90.98 531.15 91.87&#10;  C 523.79 94.07 514.90 99.87 516.02 108.40&#10;  C 516.68 113.41 521.67 116.31 526.46 115.89&#10;  C 532.88 115.32 537.17 112.36 544.04 108.78&#10;  C 552.56 104.34 564.71 104.51 572.66 110.40&#10;  Q 578.52 114.73 580.67 120.29&#10;  C 584.25 129.57 581.91 138.33 576.30 146.11&#10;  A 1.53 1.53 0.0 0 0 576.49 148.12&#10;  C 579.83 151.21 585.83 155.64 583.30 160.04&#10;  Q 581.63 162.94 578.72 166.02&#10;  Q 574.87 170.08 570.73 166.17&#10;  Q 567.05 162.72 564.41 160.05&#10;  Z"/>
<path fill="#fa9820" fill-opacity="0.992" d="&#10;  M 402.76 75.77&#10;  Q 405.95 78.90 405.46 83.74&#10;  Q 402.81 109.80 399.70 140.00&#10;  C 399.37 143.17 399.22 147.11 397.70 149.73&#10;  Q 394.73 154.84 388.25 155.04&#10;  Q 383.36 154.27 380.18 151.06&#10;  Q 374.73 145.58 367.70 138.53&#10;  C 365.14 135.97 363.65 138.02 361.48 140.18&#10;  C 329.17 172.22 296.91 203.79 266.24 234.49&#10;  Q 263.69 237.05 261.27 238.77&#10;  C 255.32 242.99 248.95 241.34 244.02 236.48&#10;  Q 218.83 211.64 203.99 196.67&#10;  Q 203.13 195.80 201.18 194.29&#10;  A 1.21 1.20 -38.8 0 0 199.91 194.16&#10;  Q 198.67 194.76 197.00 196.50&#10;  Q 190.72 203.03 186.63 207.13&#10;  Q 152.53 241.34 100.67 292.91&#10;  C 95.70 297.85 90.47 301.91 83.14 298.86&#10;  Q 76.69 296.18 72.82 289.55&#10;  Q 67.85 281.03 74.70 274.20&#10;  Q 121.60 227.34 188.72 159.72&#10;  C 194.54 153.86 200.61 149.10 208.22 156.59&#10;  Q 231.49 179.50 251.85 199.34&#10;  Q 253.92 201.36 256.16 199.15&#10;  Q 288.62 167.07 323.72 131.80&#10;  C 328.55 126.95 335.96 120.26 340.04 115.80&#10;  C 341.79 113.88 341.22 112.53 339.44 110.76&#10;  Q 332.23 103.57 328.16 99.11&#10;  C 322.88 93.32 324.51 85.07 332.33 82.81&#10;  C 337.31 81.38 342.87 81.12 348.62 80.27&#10;  Q 369.42 77.15 390.34 74.17&#10;  C 394.80 73.71 398.98 72.17 402.76 75.77&#10;  Z"/>
<path fill="#fbf9f8" fill-opacity="0.961" d="&#10;  M 403.25 74.66&#10;  L 405.22 76.71&#10;  C 407.51 82.83 406.91 88.73 406.84 97.13&#10;  A 1.60 1.58 -75.0 0 0 407.64 98.53&#10;  L 408.25 98.89&#10;  A 0.40 0.40 0.0 0 0 408.85 98.56&#10;  L 409.57 82.78&#10;  A 0.59 0.59 0.0 0 1 410.15 82.22&#10;  C 413.20 82.21 414.56 83.09 417.00 84.07&#10;  A 2.96 2.94 -57.0 0 0 420.24 83.37&#10;  Q 421.82 81.71 422.23 78.94&#10;  L 423.82 78.70&#10;  Q 422.54 93.35 422.19 98.75&#10;  Q 421.85 103.92 424.20 109.68&#10;  Q 425.95 113.98 431.46 119.42&#10;  Q 434.55 122.49 532.89 220.61&#10;  Q 535.63 223.35 539.01 225.46&#10;  Q 527.01 219.49 520.26 213.83&#10;  C 508.25 203.77 479.03 177.22 463.20 194.27&#10;  Q 460.10 197.61 458.18 201.09&#10;  C 449.16 217.45 444.75 235.02 439.20 254.01&#10;  A 3.44 3.19 -38.8 0 0 439.06 254.96&#10;  L 438.56 314.06&#10;  L 438.23 321.91&#10;  A 0.85 0.83 17.1 0 0 438.64 322.66&#10;  Q 443.31 325.45 448.54 325.73&#10;  C 451.05 327.34 454.01 327.71 456.42 328.79&#10;  C 460.16 330.48 462.73 331.00 465.71 333.03&#10;  A 1.32 1.27 67.8 0 0 466.05 333.18&#10;  L 473.89 335.29&#10;  L 469.60 334.12&#10;  A 0.16 0.16 0.0 0 0 469.48 334.42&#10;  L 478.36 339.54&#10;  A 0.31 0.31 0.0 0 0 478.81 339.16&#10;  Q 478.27 337.71 476.72 336.59&#10;  Q 478.32 337.16 479.04 336.40&#10;  A 0.46 0.45 -26.8 0 0 479.17 336.02&#10;  L 478.97 334.62&#10;  A 0.93 0.92 5.5 0 1 480.19 333.62&#10;  L 492.09 337.73&#10;  A 0.07 0.07 0.0 0 1 492.07 337.87&#10;  C 490.07 338.05 488.32 338.27 486.44 338.85&#10;  Q 482.97 339.91 480.39 339.61&#10;  A 0.29 0.29 0.0 0 0 480.13 340.07&#10;  Q 481.68 342.18 484.16 342.27&#10;  A 0.36 0.36 0.0 0 0 484.42 341.66&#10;  Q 484.14 341.39 483.24 341.69&#10;  Q 483.00 341.78 482.91 341.74&#10;  A 0.21 0.21 0.0 0 1 483.01 341.33&#10;  C 484.06 341.42 484.37 341.82 485.60 341.23&#10;  Q 492.38 337.95 499.43 341.34&#10;  C 495.11 339.81 491.12 339.27 487.60 342.60&#10;  A 1.03 1.03 0.0 0 1 486.63 342.84&#10;  Q 485.79 342.60 485.55 342.65&#10;  A 0.46 0.46 0.0 0 0 485.33 343.43&#10;  Q 488.55 346.52 490.52 347.43&#10;  Q 492.79 348.48 492.86 349.32&#10;  A 0.41 0.38 -73.2 0 0 492.97 349.54&#10;  L 505.69 361.92&#10;  C 511.88 371.22 518.30 380.65 522.90 390.38&#10;  Q 523.86 392.41 527.00 393.95&#10;  C 537.61 399.15 541.65 407.76 543.10 418.96&#10;  Q 543.95 425.51 545.45 430.08&#10;  C 547.17 435.33 547.52 442.00 548.70 446.71&#10;  Q 551.87 459.40 553.91 471.83&#10;  A 10.11 9.95 46.4 0 1 553.85 475.33&#10;  Q 549.68 496.43 549.62 496.71&#10;  Q 549.27 498.25 550.19 504.44&#10;  Q 550.70 507.87 550.97 512.19&#10;  Q 551.64 522.80 553.05 528.75&#10;  Q 554.55 535.11 554.93 538.19&#10;  Q 554.92 544.24 555.78 550.24&#10;  C 556.35 554.19 555.68 556.93 555.17 560.47&#10;  Q 554.93 562.12 555.79 566.33&#10;  A 1.79 1.76 15.2 0 0 556.35 567.29&#10;  Q 557.75 568.51 560.29 571.47&#10;  C 561.93 573.37 561.25 577.61 561.13 580.07&#10;  Q 555.75 590.12 548.52 599.04&#10;  C 540.53 608.91 531.56 615.88 521.38 622.63&#10;  Q 517.40 625.27 514.10 626.32&#10;  C 508.28 628.19 502.97 630.52 497.29 631.54&#10;  Q 489.09 633.01 480.71 632.63&#10;  Q 480.20 632.69 479.77 632.53&#10;  Q 460.09 631.21 440.25 631.78&#10;  Q 428.94 632.11 417.64 631.91&#10;  C 387.86 631.38 358.07 631.31 328.27 631.31&#10;  Q 329.54 630.66 329.95 630.04&#10;  A 1.05 1.04 -62.5 0 0 329.47 628.49&#10;  Q 325.60 626.97 321.85 626.42&#10;  Q 303.09 623.71 283.66 623.89&#10;  C 255.32 624.16 245.05 623.79 225.90 625.20&#10;  Q 221.24 625.54 217.75 626.65&#10;  A 0.47 0.47 0.0 0 0 217.67 627.52&#10;  Q 218.44 627.93 219.69 628.11&#10;  Q 227.97 629.31 236.30 630.26&#10;  L 144.09 630.36&#10;  Q 137.26 625.43 129.65 625.15&#10;  C 117.55 624.72 109.57 623.99 99.41 624.14&#10;  A 1.52 1.52 0.0 0 1 97.87 622.68&#10;  Q 97.85 622.29 98.94 621.19&#10;  Q 102.44 620.13 106.13 619.00&#10;  Q 116.59 615.81 124.73 609.96&#10;  C 133.82 603.44 140.05 596.72 147.11 587.43&#10;  C 158.00 573.08 164.54 564.14 171.18 555.66&#10;  C 166.34 565.83 159.54 575.44 155.44 581.80&#10;  C 145.11 597.80 162.44 604.02 174.56 605.94&#10;  C 194.84 609.14 215.62 606.48 231.44 592.59&#10;  Q 233.39 590.88 240.73 581.87&#10;  Q 247.59 573.45 256.03 566.76&#10;  C 260.38 563.32 265.37 558.83 267.63 555.57&#10;  Q 275.38 544.41 284.73 534.97&#10;  Q 285.83 533.85 288.23 529.83&#10;  A 2.68 2.63 -2.8 0 1 288.99 529.01&#10;  Q 290.54 527.92 291.79 527.67&#10;  Q 297.85 526.45 305.97 526.06&#10;  Q 345.60 525.87 360.02 526.15&#10;  Q 368.01 526.30 376.47 530.48&#10;  C 380.76 532.61 386.95 538.01 389.34 541.15&#10;  Q 393.26 546.31 397.69 551.59&#10;  Q 406.23 563.57 424.33 587.67&#10;  Q 432.70 598.82 441.71 605.58&#10;  Q 451.14 614.00 462.62 618.16&#10;  C 489.62 627.96 518.34 620.25 536.88 598.67&#10;  C 550.57 582.74 555.83 561.42 552.90 540.53&#10;  Q 543.54 473.74 529.15 416.58&#10;  Q 525.89 403.63 522.54 394.73&#10;  Q 511.28 364.81 485.34 345.68&#10;  Q 466.84 332.04 443.87 326.53&#10;  Q 440.39 325.69 437.08 324.92&#10;  Q 437.19 255.80 437.07 187.00&#10;  Q 437.05 178.96 428.66 175.82&#10;  Q 418.69 164.28 403.51 158.93&#10;  Q 394.94 155.91 388.25 155.04&#10;  Q 394.73 154.84 397.70 149.73&#10;  C 399.22 147.11 399.37 143.17 399.70 140.00&#10;  Q 402.81 109.80 405.46 83.74&#10;  Q 405.95 78.90 402.76 75.77&#10;  Q 402.87 75.08 403.25 74.66&#10;  Z&#10;  M 481.3815 338.2507&#10;  A 0.60 0.42 -164.6 0 0 481.8485 338.8149&#10;  A 0.60 0.42 -164.6 0 0 482.5385 338.5693&#10;  A 0.60 0.42 -164.6 0 0 482.0715 338.0051&#10;  A 0.60 0.42 -164.6 0 0 481.3815 338.2507&#10;  Z"/>
<path fill="#f9f7f7" fill-opacity="0.925" d="&#10;  M 422.23 78.94&#10;  Q 421.82 81.71 420.24 83.37&#10;  A 2.96 2.94 -57.0 0 1 417.00 84.07&#10;  C 414.56 83.09 413.20 82.21 410.15 82.22&#10;  A 0.59 0.59 0.0 0 0 409.57 82.78&#10;  L 408.85 98.56&#10;  A 0.40 0.40 0.0 0 1 408.25 98.89&#10;  L 407.64 98.53&#10;  A 1.60 1.58 -75.0 0 1 406.84 97.13&#10;  C 406.91 88.73 407.51 82.83 405.22 76.71&#10;  C 411.02 77.08 416.45 78.97 422.23 78.94&#10;  Z"/>
<path fill="#1fa8ad" fill-opacity="0.992" d="&#10;  M 428.66 175.82&#10;  Q 437.05 178.96 437.07 187.00&#10;  Q 437.19 255.80 437.08 324.92&#10;  C 423.79 323.53 413.72 323.75 398.25 323.91&#10;  Q 386.56 324.02 372.83 330.05&#10;  Q 372.19 330.33 371.00 330.55&#10;  Q 370.94 260.63 371.02 190.75&#10;  C 371.02 187.46 371.12 184.21 372.68 181.61&#10;  Q 376.68 174.95 383.76 174.97&#10;  Q 395.76 175.01 423.75 174.97&#10;  Q 426.04 174.97 428.66 175.82&#10;  Z"/>
<path fill="#f9f7f7" fill-opacity="0.925" d="&#10;  M 539.01 225.46&#10;  Q 549.87 231.21 560.29 224.04&#10;  Q 562.08 222.81 566.06 218.96&#10;  C 565.29 222.82 563.32 227.09 563.08 230.40&#10;  C 562.65 236.41 562.47 240.06 561.57 248.30&#10;  Q 561.32 250.56 556.51 261.71&#10;  C 554.70 265.90 551.48 271.21 547.25 273.17&#10;  C 542.16 275.54 539.49 269.81 538.56 265.65&#10;  C 537.36 260.32 536.58 255.17 534.55 251.11&#10;  Q 531.58 245.18 526.59 240.64&#10;  Q 517.14 232.05 503.34 220.48&#10;  C 498.58 216.50 492.68 212.73 486.22 213.07&#10;  C 476.08 213.61 470.96 226.59 468.24 234.58&#10;  C 465.16 243.65 462.18 255.45 458.30 266.26&#10;  Q 449.54 290.61 438.56 314.06&#10;  L 439.06 254.96&#10;  A 3.44 3.19 -38.8 0 1 439.20 254.01&#10;  C 444.75 235.02 449.16 217.45 458.18 201.09&#10;  Q 460.10 197.61 463.20 194.27&#10;  C 479.03 177.22 508.25 203.77 520.26 213.83&#10;  Q 527.01 219.49 539.01 225.46&#10;  Z"/>
<path fill="#ecebea" fill-opacity="0.835" d="&#10;  M 566.06 218.96&#10;  Q 568.02 216.58 571.11 214.74&#10;  Q 570.39 217.36 570.13 218.86&#10;  Q 570.24 217.94 570.05 216.98&#10;  A 0.24 0.24 0.0 0 0 569.60 216.94&#10;  C 568.99 218.42 568.98 218.65 567.95 219.99&#10;  Q 565.87 222.69 567.12 225.85&#10;  Q 567.51 226.84 568.50 226.85&#10;  A 0.31 0.31 0.0 0 0 568.73 226.33&#10;  Q 567.35 224.84 567.07 223.50&#10;  Q 567.04 223.33 567.05 223.24&#10;  A 0.06 0.06 0.0 0 1 567.16 223.22&#10;  Q 568.05 225.24 570.48 226.52&#10;  L 568.78 237.76&#10;  Q 569.00 237.71 568.71 237.97&#10;  Q 567.75 238.18 567.85 238.92&#10;  C 565.66 244.79 567.34 252.00 568.78 257.31&#10;  L 568.85 260.96&#10;  L 568.78 264.46&#10;  L 568.67 269.46&#10;  L 568.62 263.55&#10;  A 0.22 0.22 0.0 0 0 568.40 263.33&#10;  L 568.39 263.33&#10;  A 0.27 0.26 87.4 0 0 568.17 263.58&#10;  L 567.98 271.69&#10;  A 3.62 3.21 56.9 0 1 567.85 272.56&#10;  C 566.17 278.18 564.20 283.14 564.74 289.10&#10;  Q 565.11 293.06 567.38 314.20&#10;  Q 567.91 319.09 567.38 328.52&#10;  C 566.70 340.70 567.47 352.55 566.72 363.96&#10;  C 566.40 368.87 567.06 375.72 565.95 381.37&#10;  A 1.24 1.23 25.6 0 1 563.94 382.07&#10;  L 555.02 374.58&#10;  A 0.84 0.83 -57.1 0 0 553.73 374.86&#10;  C 550.54 381.37 549.85 383.24 546.81 388.15&#10;  Q 543.47 393.54 544.23 400.43&#10;  A 0.11 0.11 0.0 0 1 544.13 400.55&#10;  A 0.15 0.15 0.0 0 1 543.95 400.43&#10;  Q 543.14 396.40 543.56 392.40&#10;  C 543.91 389.10 546.00 386.72 547.81 383.73&#10;  Q 548.83 382.05 548.86 381.78&#10;  A 0.46 0.46 0.0 0 0 548.06 381.43&#10;  Q 548.05 381.44 547.45 382.87&#10;  A 0.22 0.21 -43.1 0 1 547.05 382.86&#10;  Q 546.85 382.34 546.41 382.22&#10;  Q 545.87 382.09 545.29 382.58&#10;  Q 541.45 385.78 540.93 391.53&#10;  A 0.26 0.26 0.0 0 1 540.47 391.68&#10;  Q 539.96 391.10 539.88 390.24&#10;  Q 539.87 390.13 539.87 390.52&#10;  A 3.09 3.02 34.5 0 0 540.10 391.68&#10;  Q 540.83 393.52 543.86 403.11&#10;  Q 545.86 409.41 546.45 413.60&#10;  C 547.22 419.03 549.50 423.68 550.66 429.16&#10;  Q 553.29 441.55 554.55 453.02&#10;  Q 554.81 455.37 556.03 459.23&#10;  Q 556.05 460.62 556.56 462.03&#10;  Q 556.28 463.00 556.69 463.78&#10;  L 557.32 467.70&#10;  Q 557.26 468.25 557.49 468.72&#10;  Q 557.50 469.93 557.92 470.84&#10;  L 559.71 478.18&#10;  Q 559.42 478.34 559.96 478.76&#10;  Q 562.09 486.18 565.23 492.21&#10;  Q 565.45 494.81 566.61 496.74&#10;  A 0.15 0.15 0.0 0 1 566.64 496.83&#10;  L 567.53 509.44&#10;  A 0.19 0.19 0.0 0 0 567.76 509.61&#10;  L 568.03 509.54&#10;  A 0.01 0.01 0.0 0 0 568.04 509.53&#10;  L 565.62 499.42&#10;  A 0.25 0.25 0.0 0 0 565.21 499.29&#10;  L 565.01 499.46&#10;  A 0.11 0.11 0.0 0 1 564.83 499.39&#10;  L 564.51 494.79&#10;  A 0.33 0.33 0.0 0 0 564.23 494.49&#10;  Q 563.63 494.41 563.91 493.76&#10;  A 0.40 0.40 0.0 0 0 563.65 493.22&#10;  L 562.97 493.04&#10;  A 0.70 0.70 0.0 0 0 562.10 493.60&#10;  Q 561.10 499.31 562.17 505.21&#10;  A 0.11 0.08 -38.0 0 1 562.15 505.29&#10;  Q 562.14 505.30 562.14 505.32&#10;  A 0.06 0.04 52.0 0 1 562.05 505.29&#10;  C 561.26 501.66 560.82 497.47 561.12 493.62&#10;  C 560.21 500.13 561.05 504.89 562.45 511.27&#10;  A 0.04 0.04 0.0 0 0 562.52 511.26&#10;  L 562.50 505.87&#10;  A 0.05 0.04 9.7 0 1 562.56 505.83&#10;  L 562.88 505.91&#10;  A 0.17 0.16 -85.3 0 1 563.00 506.06&#10;  Q 563.62 513.05 565.17 520.33&#10;  C 565.64 522.56 565.66 524.46 565.63 526.99&#10;  Q 565.50 538.69 566.23 550.26&#10;  Q 566.40 553.02 567.86 558.77&#10;  Q 565.93 569.80 561.13 580.07&#10;  C 561.25 577.61 561.93 573.37 560.29 571.47&#10;  Q 557.75 568.51 556.35 567.29&#10;  A 1.79 1.76 15.2 0 1 555.79 566.33&#10;  Q 554.93 562.12 555.17 560.47&#10;  C 555.68 556.93 556.35 554.19 555.78 550.24&#10;  Q 554.92 544.24 554.93 538.19&#10;  Q 557.59 538.43 558.03 540.58&#10;  A 0.94 0.94 0.0 0 0 559.86 540.63&#10;  C 562.50 530.46 561.40 518.92 558.31 508.79&#10;  Q 555.83 500.64 555.75 500.36&#10;  C 554.28 495.37 555.40 490.98 556.47 484.87&#10;  C 558.32 474.28 555.15 465.56 551.30 452.16&#10;  Q 549.51 445.93 549.30 443.95&#10;  C 548.77 438.95 548.81 432.90 546.94 426.77&#10;  C 544.85 419.90 544.60 417.35 543.39 409.80&#10;  Q 542.46 404.02 539.85 398.04&#10;  A 10.39 9.91 15.4 0 0 538.55 395.87&#10;  L 534.60 390.77&#10;  A 4.42 4.32 -76.8 0 1 534.05 389.86&#10;  Q 531.07 383.48 528.45 380.99&#10;  Q 521.20 374.11 515.53 365.70&#10;  C 513.00 361.93 510.12 359.11 505.69 361.92&#10;  L 492.97 349.54&#10;  A 0.41 0.38 -73.2 0 1 492.86 349.32&#10;  Q 492.79 348.48 490.52 347.43&#10;  Q 488.55 346.52 485.33 343.43&#10;  A 0.46 0.46 0.0 0 1 485.55 342.65&#10;  Q 485.79 342.60 486.63 342.84&#10;  A 1.03 1.03 0.0 0 0 487.60 342.60&#10;  C 491.12 339.27 495.11 339.81 499.43 341.34&#10;  L 509.49 349.92&#10;  A 0.34 0.34 0.0 0 0 509.93 349.92&#10;  L 510.14 349.74&#10;  A 0.26 0.26 0.0 0 0 510.16 349.38&#10;  L 501.89 340.06&#10;  A 0.53 0.53 0.0 0 0 501.09 340.07&#10;  L 500.92 340.27&#10;  A 0.53 0.52 -50.1 0 0 500.98 341.00&#10;  L 502.57 342.35&#10;  A 0.26 0.26 0.0 0 1 502.60 342.73&#10;  L 502.59 342.74&#10;  A 0.24 0.24 0.0 0 1 502.27 342.71&#10;  L 500.25 340.50&#10;  A 0.86 0.86 0.0 0 1 500.04 339.78&#10;  Q 500.20 338.76 500.00 338.03&#10;  C 497.68 329.47 492.92 320.82 484.64 317.34&#10;  Q 475.00 313.29 471.47 312.55&#10;  C 466.62 311.54 459.57 311.67 458.49 317.79&#10;  Q 458.33 318.69 458.21 321.13&#10;  A 0.15 0.15 0.0 0 1 457.92 321.16&#10;  L 456.98 317.24&#10;  A 0.08 0.08 0.0 0 0 456.82 317.24&#10;  L 456.04 320.15&#10;  A 2.48 2.46 -3.5 0 1 454.57 321.80&#10;  Q 451.31 323.09 448.54 325.73&#10;  Q 443.31 325.45 438.64 322.66&#10;  A 0.85 0.83 17.1 0 1 438.23 321.91&#10;  L 438.56 314.06&#10;  Q 449.54 290.61 458.30 266.26&#10;  C 462.18 255.45 465.16 243.65 468.24 234.58&#10;  C 470.96 226.59 476.08 213.61 486.22 213.07&#10;  C 492.68 212.73 498.58 216.50 503.34 220.48&#10;  Q 517.14 232.05 526.59 240.64&#10;  Q 531.58 245.18 534.55 251.11&#10;  C 536.58 255.17 537.36 260.32 538.56 265.65&#10;  C 539.49 269.81 542.16 275.54 547.25 273.17&#10;  C 551.48 271.21 554.70 265.90 556.51 261.71&#10;  Q 561.32 250.56 561.57 248.30&#10;  C 562.47 240.06 562.65 236.41 563.08 230.40&#10;  C 563.32 227.09 565.29 222.82 566.06 218.96&#10;  Z&#10;  M 566.11 237.54&#10;  Q 565.33 243.66 565.75 248.74&#10;  C 566.12 253.17 567.15 258.75 566.58 263.60&#10;  Q 566.03 268.30 563.38 274.61&#10;  A 0.43 0.43 0.0 0 0 564.14 274.99&#10;  L 567.18 269.72&#10;  A 2.30 2.28 62.4 0 0 567.48 268.75&#10;  Q 568.05 260.64 567.83 258.84&#10;  Q 566.39 246.83 566.46 237.52&#10;  A 0.12 0.07 88.0 0 0 566.38 237.40&#10;  Q 566.34 237.40 566.27 237.35&#10;  A 0.19 0.09 -75.7 0 0 566.11 237.54&#10;  Z"/>
<path fill="#dfdedc" fill-opacity="0.710" d="&#10;  M 571.12 215.16&#10;  L 570.48 226.52&#10;  Q 568.05 225.24 567.16 223.22&#10;  A 0.06 0.06 0.0 0 0 567.05 223.24&#10;  Q 567.04 223.33 567.07 223.50&#10;  Q 567.35 224.84 568.73 226.33&#10;  A 0.31 0.31 0.0 0 1 568.50 226.85&#10;  Q 567.51 226.84 567.12 225.85&#10;  Q 565.87 222.69 567.95 219.99&#10;  C 568.98 218.65 568.99 218.42 569.60 216.94&#10;  A 0.24 0.24 0.0 0 1 570.05 216.98&#10;  Q 570.24 217.94 570.13 218.86&#10;  Q 570.39 217.36 571.11 214.74&#10;  Q 571.11 214.95 571.12 215.16&#10;  Z"/>
<path fill="#1fa8ad" fill-opacity="0.992" d="&#10;  M 349.96 331.07&#10;  L 284.70 331.09&#10;  Q 284.56 288.09 284.61 245.50&#10;  Q 284.62 238.36 290.69 235.66&#10;  C 292.86 234.70 296.94 234.91 299.83 234.92&#10;  Q 323.52 235.08 334.60 234.86&#10;  Q 342.51 234.70 345.13 236.28&#10;  Q 349.98 239.22 349.99 245.25&#10;  Q 350.06 287.95 349.96 331.07&#10;  Z"/>
<path fill="#dfdedc" fill-opacity="0.710" d="&#10;  M 566.27 237.35&#10;  Q 566.34 237.40 566.38 237.40&#10;  A 0.12 0.07 88.0 0 1 566.46 237.52&#10;  Q 566.39 246.83 567.83 258.84&#10;  Q 568.05 260.64 567.48 268.75&#10;  A 2.30 2.28 62.4 0 1 567.18 269.72&#10;  L 564.14 274.99&#10;  A 0.43 0.43 0.0 0 1 563.38 274.61&#10;  Q 566.03 268.30 566.58 263.60&#10;  C 567.15 258.75 566.12 253.17 565.75 248.74&#10;  Q 565.33 243.66 566.11 237.54&#10;  A 0.19 0.09 -75.7 0 1 566.27 237.35&#10;  Z"/>
<path fill="#000e1e" fill-opacity="0.992" d="&#10;  M 568.78 237.76&#10;  Q 569.04 238.15 568.74 238.48&#10;  Q 568.93 238.51 568.71 237.97&#10;  Q 569.00 237.71 568.78 237.76&#10;  Z"/>
<path fill="#dfdedc" fill-opacity="0.710" d="&#10;  M 568.71 237.97&#10;  Q 568.93 238.51 568.74 238.48&#10;  L 568.78 257.31&#10;  C 567.34 252.00 565.66 244.79 567.85 238.92&#10;  Q 567.75 238.18 568.71 237.97&#10;  Z"/>
<path fill="#000e1e" fill-opacity="0.992" d="&#10;  M 568.78 264.46&#10;  L 568.85 260.96&#10;  L 568.78 264.46&#10;  Z"/>
<path fill="#dfdedc" fill-opacity="0.710" d="&#10;  M 568.67 269.46&#10;  L 568.85 273.21&#10;  L 568.82 274.73&#10;  L 569.86 305.77&#10;  L 570.27 320.45&#10;  Q 570.29 337.60 571.05 354.72&#10;  Q 571.94 374.59 571.90 383.30&#10;  Q 571.79 407.80 571.92 411.88&#10;  Q 572.00 414.19 571.70 418.13&#10;  C 571.43 421.76 571.54 423.20 570.86 426.42&#10;  Q 569.55 432.66 568.90 438.97&#10;  Q 567.94 440.44 567.00 439.45&#10;  Q 566.42 438.85 565.97 438.87&#10;  Q 565.75 438.87 565.69 438.91&#10;  A 0.08 0.08 0.0 0 0 565.66 439.03&#10;  Q 566.80 440.63 568.49 441.82&#10;  Q 564.24 440.93 559.98 441.13&#10;  A 0.05 0.03 23.2 0 1 559.93 441.06&#10;  Q 559.96 441.05 559.97 441.03&#10;  A 0.09 0.04 3.0 0 1 560.05 441.00&#10;  L 566.25 440.85&#10;  A 0.15 0.15 0.0 0 0 566.35 440.59&#10;  L 566.10 440.35&#10;  A 0.99 0.98 -14.3 0 0 565.32 439.89&#10;  Q 561.07 439.66 557.57 441.80&#10;  A 1.58 1.57 -3.9 0 0 556.94 442.52&#10;  Q 555.83 445.10 555.88 448.00&#10;  Q 555.97 453.59 556.03 459.23&#10;  Q 554.81 455.37 554.55 453.02&#10;  Q 553.29 441.55 550.66 429.16&#10;  C 549.50 423.68 547.22 419.03 546.45 413.60&#10;  Q 545.86 409.41 543.86 403.11&#10;  Q 540.83 393.52 540.10 391.68&#10;  A 3.09 3.02 34.5 0 1 539.87 390.52&#10;  Q 539.87 390.13 539.88 390.24&#10;  Q 539.96 391.10 540.47 391.68&#10;  A 0.26 0.26 0.0 0 0 540.93 391.53&#10;  Q 541.45 385.78 545.29 382.58&#10;  Q 545.87 382.09 546.41 382.22&#10;  Q 546.85 382.34 547.05 382.86&#10;  A 0.22 0.21 -43.1 0 0 547.45 382.87&#10;  Q 548.05 381.44 548.06 381.43&#10;  A 0.46 0.46 0.0 0 1 548.86 381.78&#10;  Q 548.83 382.05 547.81 383.73&#10;  C 546.00 386.72 543.91 389.10 543.56 392.40&#10;  Q 543.14 396.40 543.95 400.43&#10;  A 0.15 0.15 0.0 0 0 544.13 400.55&#10;  A 0.11 0.11 0.0 0 0 544.23 400.43&#10;  Q 543.47 393.54 546.81 388.15&#10;  C 549.85 383.24 550.54 381.37 553.73 374.86&#10;  A 0.84 0.83 -57.1 0 1 555.02 374.58&#10;  L 563.94 382.07&#10;  A 1.24 1.23 25.6 0 0 565.95 381.37&#10;  C 567.06 375.72 566.40 368.87 566.72 363.96&#10;  C 567.47 352.55 566.70 340.70 567.38 328.52&#10;  Q 567.91 319.09 567.38 314.20&#10;  Q 565.11 293.06 564.74 289.10&#10;  C 564.20 283.14 566.17 278.18 567.85 272.56&#10;  A 3.62 3.21 56.9 0 0 567.98 271.69&#10;  L 568.17 263.58&#10;  A 0.27 0.26 87.4 0 1 568.39 263.33&#10;  L 568.40 263.33&#10;  A 0.22 0.22 0.0 0 1 568.62 263.55&#10;  L 568.67 269.46&#10;  Z"/>
<path fill="#1fa8ad" fill-opacity="0.992" d="&#10;  M 261.99 331.03&#10;  L 228.95 330.95&#10;  Q 214.48 317.29 196.74 310.75&#10;  A 1.33 1.33 0.0 0 1 195.88 309.52&#10;  Q 195.67 293.14 195.98 280.06&#10;  Q 196.12 273.94 200.82 271.13&#10;  Q 203.22 269.71 211.28 269.80&#10;  Q 235.43 270.06 246.56 269.86&#10;  C 255.26 269.71 261.87 270.88 262.00 280.50&#10;  Q 262.18 294.49 261.99 331.03&#10;  Z"/>
<path fill="#000e1e" fill-opacity="0.992" d="&#10;  M 568.82 274.73&#10;  L 568.85 273.21&#10;  L 568.82 274.73&#10;  Z"/>
<path fill="#000e1e" fill-opacity="0.992" d="&#10;  M 570.27 320.45&#10;  L 569.86 305.77&#10;  L 570.27 320.45&#10;  Z"/>
<path fill="#dfdedc" fill-opacity="0.710" d="&#10;  M 499.43 341.34&#10;  Q 492.38 337.95 485.60 341.23&#10;  C 484.37 341.82 484.06 341.42 483.01 341.33&#10;  A 0.21 0.21 0.0 0 0 482.91 341.74&#10;  Q 483.00 341.78 483.24 341.69&#10;  Q 484.14 341.39 484.42 341.66&#10;  A 0.36 0.36 0.0 0 1 484.16 342.27&#10;  Q 481.68 342.18 480.13 340.07&#10;  A 0.29 0.29 0.0 0 1 480.39 339.61&#10;  Q 482.97 339.91 486.44 338.85&#10;  C 488.32 338.27 490.07 338.05 492.07 337.87&#10;  A 0.07 0.07 0.0 0 0 492.09 337.73&#10;  L 480.19 333.62&#10;  A 0.93 0.92 5.5 0 0 478.97 334.62&#10;  L 479.17 336.02&#10;  A 0.46 0.45 -26.8 0 1 479.04 336.40&#10;  Q 478.32 337.16 476.72 336.59&#10;  L 473.89 335.29&#10;  L 466.05 333.18&#10;  A 1.32 1.27 67.8 0 1 465.71 333.03&#10;  C 462.73 331.00 460.16 330.48 456.42 328.79&#10;  C 454.01 327.71 451.05 327.34 448.54 325.73&#10;  Q 451.31 323.09 454.57 321.80&#10;  A 2.48 2.46 -3.5 0 0 456.04 320.15&#10;  L 456.82 317.24&#10;  A 0.08 0.08 0.0 0 1 456.98 317.24&#10;  L 457.92 321.16&#10;  A 0.15 0.15 0.0 0 0 458.21 321.13&#10;  Q 458.33 318.69 458.49 317.79&#10;  C 459.57 311.67 466.62 311.54 471.47 312.55&#10;  Q 475.00 313.29 484.64 317.34&#10;  C 492.92 320.82 497.68 329.47 500.00 338.03&#10;  Q 500.20 338.76 500.04 339.78&#10;  A 0.86 0.86 0.0 0 0 500.25 340.50&#10;  L 502.27 342.71&#10;  A 0.24 0.24 0.0 0 0 502.59 342.74&#10;  L 502.60 342.73&#10;  A 0.26 0.26 0.0 0 0 502.57 342.35&#10;  L 500.98 341.00&#10;  A 0.53 0.52 -50.1 0 1 500.92 340.27&#10;  L 501.09 340.07&#10;  A 0.53 0.53 0.0 0 1 501.89 340.06&#10;  L 510.16 349.38&#10;  A 0.26 0.26 0.0 0 1 510.14 349.74&#10;  L 509.93 349.92&#10;  A 0.34 0.34 0.0 0 1 509.49 349.92&#10;  L 499.43 341.34&#10;  Z"/>
<path fill="#000e1e" fill-opacity="0.992" d="&#10;  M 228.95 330.95&#10;  L 261.99 331.03&#10;  L 284.70 331.09&#10;  L 349.96 331.07&#10;  L 371.00 330.55&#10;  Q 372.19 330.33 372.83 330.05&#10;  Q 386.56 324.02 398.25 323.91&#10;  C 413.72 323.75 423.79 323.53 437.08 324.92&#10;  Q 440.39 325.69 443.87 326.53&#10;  Q 466.84 332.04 485.34 345.68&#10;  Q 511.28 364.81 522.54 394.73&#10;  Q 525.89 403.63 529.15 416.58&#10;  Q 543.54 473.74 552.90 540.53&#10;  C 555.83 561.42 550.57 582.74 536.88 598.67&#10;  C 518.34 620.25 489.62 627.96 462.62 618.16&#10;  Q 451.14 614.00 441.71 605.58&#10;  Q 457.77 616.59 472.23 619.76&#10;  Q 481.36 621.76 489.49 621.19&#10;  Q 509.78 619.76 525.62 607.79&#10;  Q 538.67 597.94 545.51 583.86&#10;  Q 552.75 568.95 552.54 553.51&#10;  Q 552.45 546.67 552.46 546.24&#10;  C 552.53 542.29 551.19 537.94 551.09 534.45&#10;  C 551.05 533.00 550.30 532.03 550.39 530.16&#10;  Q 550.45 529.03 550.09 526.89&#10;  Q 546.88 507.47 544.14 491.77&#10;  Q 537.65 454.68 528.67 418.91&#10;  Q 527.08 412.58 525.59 407.64&#10;  Q 523.11 399.39 522.07 396.50&#10;  Q 517.56 383.97 508.91 371.09&#10;  C 506.27 367.16 503.61 364.44 500.37 360.62&#10;  Q 494.46 353.63 484.44 346.36&#10;  Q 466.14 333.08 443.95 327.42&#10;  Q 435.06 325.16 423.37 324.80&#10;  Q 414.40 324.52 402.46 324.71&#10;  C 398.85 324.77 396.21 325.27 393.63 325.36&#10;  Q 390.49 325.47 387.09 326.36&#10;  Q 378.36 328.64 371.77 331.39&#10;  A 5.29 5.26 -57.9 0 1 370.00 331.80&#10;  Q 362.85 332.20 361.25 332.17&#10;  Q 336.84 331.76 313.57 331.98&#10;  Q 280.04 332.30 269.65 332.04&#10;  Q 250.75 331.55 234.13 331.95&#10;  Q 215.97 332.38 204.00 331.61&#10;  A 3.60 3.56 -32.3 0 1 203.05 331.40&#10;  C 197.09 329.10 190.77 326.45 185.00 326.03&#10;  C 182.35 325.84 179.86 324.59 177.00 324.62&#10;  C 162.50 324.75 148.78 323.74 135.75 326.08&#10;  Q 117.52 329.35 100.95 338.49&#10;  Q 90.48 344.27 79.57 353.32&#10;  Q 74.53 357.49 68.72 364.49&#10;  Q 61.27 373.47 56.86 381.37&#10;  Q 52.76 388.70 49.77 396.66&#10;  Q 47.27 403.31 44.74 412.74&#10;  Q 35.75 446.18 29.26 482.63&#10;  Q 26.47 498.26 23.81 514.07&#10;  Q 21.28 529.15 19.35 545.67&#10;  A 0.38 0.38 0.0 0 1 18.61 545.73&#10;  L 18.33 544.68&#10;  Q 24.51 498.58 34.07 453.02&#10;  Q 38.48 431.99 44.51 409.77&#10;  C 51.61 383.65 64.81 361.94 86.90 345.93&#10;  C 104.45 333.21 127.49 323.77 148.77 323.75&#10;  Q 165.65 323.73 167.40 323.71&#10;  Q 179.85 323.51 185.05 324.67&#10;  Q 195.47 326.98 202.11 330.06&#10;  A 8.56 8.47 -32.1 0 0 205.65 330.85&#10;  L 228.95 330.95&#10;  Z"/>
<path fill="#073653" fill-opacity="0.992" d="&#10;  M 441.71 605.58&#10;  Q 432.70 598.82 424.33 587.67&#10;  Q 406.23 563.57 397.69 551.59&#10;  Q 394.68 545.70 390.24 540.59&#10;  Q 388.50 538.58 385.57 536.09&#10;  Q 381.17 532.34 380.63 531.91&#10;  C 374.75 527.22 364.97 525.11 357.24 525.11&#10;  Q 293.62 525.10 219.25 525.03&#10;  C 216.30 525.03 210.66 525.12 206.67 525.79&#10;  Q 193.57 527.99 184.32 537.93&#10;  C 180.71 541.81 176.31 547.42 172.38 552.61&#10;  Q 158.77 570.55 146.51 587.25&#10;  Q 146.29 587.56 140.47 594.46&#10;  Q 129.86 607.04 115.10 614.50&#10;  Q 100.96 621.65 81.98 621.40&#10;  Q 80.71 621.38 76.46 620.63&#10;  C 70.86 619.63 66.22 618.64 61.52 616.57&#10;  Q 58.01 615.01 52.73 612.14&#10;  Q 45.35 608.13 39.34 602.25&#10;  Q 35.22 598.23 32.08 593.44&#10;  Q 28.83 588.49 26.23 583.44&#10;  A 0.60 0.60 0.0 0 0 25.20 583.38&#10;  L 24.97 583.74&#10;  Q 16.37 565.28 18.33 544.68&#10;  L 18.61 545.73&#10;  A 0.38 0.38 0.0 0 0 19.35 545.67&#10;  Q 21.28 529.15 23.81 514.07&#10;  Q 26.47 498.26 29.26 482.63&#10;  Q 35.75 446.18 44.74 412.74&#10;  Q 47.27 403.31 49.77 396.66&#10;  Q 52.76 388.70 56.86 381.37&#10;  Q 61.27 373.47 68.72 364.49&#10;  Q 74.53 357.49 79.57 353.32&#10;  Q 90.48 344.27 100.95 338.49&#10;  Q 117.52 329.35 135.75 326.08&#10;  C 148.78 323.74 162.50 324.75 177.00 324.62&#10;  C 179.86 324.59 182.35 325.84 185.00 326.03&#10;  C 190.77 326.45 197.09 329.10 203.05 331.40&#10;  A 3.60 3.56 -32.3 0 0 204.00 331.61&#10;  Q 215.97 332.38 234.13 331.95&#10;  Q 250.75 331.55 269.65 332.04&#10;  Q 280.04 332.30 313.57 331.98&#10;  Q 336.84 331.76 361.25 332.17&#10;  Q 362.85 332.20 370.00 331.80&#10;  A 5.29 5.26 -57.9 0 0 371.77 331.39&#10;  Q 378.36 328.64 387.09 326.36&#10;  Q 390.49 325.47 393.63 325.36&#10;  C 396.21 325.27 398.85 324.77 402.46 324.71&#10;  Q 414.40 324.52 423.37 324.80&#10;  Q 435.06 325.16 443.95 327.42&#10;  Q 466.14 333.08 484.44 346.36&#10;  Q 494.46 353.63 500.37 360.62&#10;  C 503.61 364.44 506.27 367.16 508.91 371.09&#10;  Q 517.56 383.97 522.07 396.50&#10;  Q 523.11 399.39 525.59 407.64&#10;  Q 527.08 412.58 528.67 418.91&#10;  Q 537.65 454.68 544.14 491.77&#10;  Q 546.88 507.47 550.09 526.89&#10;  Q 550.45 529.03 550.39 530.16&#10;  C 550.30 532.03 551.05 533.00 551.09 534.45&#10;  C 551.19 537.94 552.53 542.29 552.46 546.24&#10;  Q 552.45 546.67 552.54 553.51&#10;  Q 552.75 568.95 545.51 583.86&#10;  Q 538.67 597.94 525.62 607.79&#10;  Q 509.78 619.76 489.49 621.19&#10;  Q 481.36 621.76 472.23 619.76&#10;  Q 457.77 616.59 441.71 605.58&#10;  Z&#10;  M 444.0778 394.0433&#10;  A 22.68 22.03 -0.8 0 0 421.0924 372.3321&#10;  A 22.68 22.03 -0.8 0 0 398.7222 394.6767&#10;  A 22.68 22.03 -0.8 0 0 421.7076 416.3879&#10;  A 22.68 22.03 -0.8 0 0 444.0778 394.0433&#10;  Z&#10;  M 167.18 484.43&#10;  L 167.27 470.00&#10;  C 168.88 467.05 168.34 460.38 168.47 458.72&#10;  A 3.33 3.31 -31.6 0 1 168.72 457.68&#10;  Q 170.35 453.79 175.26 453.86&#10;  Q 186.25 454.01 197.67 453.70&#10;  Q 201.42 453.60 203.11 452.44&#10;  C 207.59 449.36 208.86 446.53 208.93 440.25&#10;  Q 209.02 431.79 208.82 425.53&#10;  A 4.85 4.84 33.6 0 0 208.51 424.00&#10;  Q 205.36 415.78 196.95 415.72&#10;  Q 190.03 415.67 172.67 415.46&#10;  Q 169.07 415.42 168.61 411.65&#10;  A 0.53 0.51 -78.5 0 0 168.36 411.26&#10;  Q 167.72 410.85 167.47 411.58&#10;  L 166.79 383.18&#10;  Q 164.83 376.01 156.50 375.55&#10;  Q 151.35 375.27 142.85 375.54&#10;  Q 138.07 375.70 135.79 376.78&#10;  C 129.34 379.83 129.17 384.60 129.30 392.21&#10;  Q 129.33 393.64 129.22 402.15&#10;  C 129.17 405.67 128.54 409.64 128.22 412.47&#10;  A 2.97 2.97 0.0 0 1 125.34 415.09&#10;  C 122.25 415.17 119.05 415.61 115.87 415.63&#10;  Q 103.29 415.70 100.72 415.95&#10;  Q 91.64 416.87 89.66 425.19&#10;  A 3.29 3.16 52.0 0 0 89.59 425.86&#10;  L 89.59 444.42&#10;  A 1.74 1.53 41.4 0 0 89.64 444.82&#10;  Q 90.88 449.72 95.11 452.44&#10;  Q 97.12 453.74 104.25 453.74&#10;  Q 115.09 453.76 123.55 453.97&#10;  C 127.40 454.06 128.36 455.68 128.67 459.39&#10;  Q 129.61 470.48 129.33 480.75&#10;  Q 129.21 485.29 130.04 487.25&#10;  Q 131.44 490.55 134.40 492.67&#10;  A 2.00 1.81 69.8 0 0 134.80 492.88&#10;  L 138.67 494.21&#10;  Q 138.70 494.22 138.73 494.23&#10;  Q 154.21 494.63 157.75 494.19&#10;  Q 162.90 493.54 165.88 489.89&#10;  Q 167.86 487.46 167.18 484.43&#10;  Z&#10;  M 399.1841 435.3421&#10;  A 22.64 22.20 -5.8 0 0 374.4166 415.5436&#10;  A 22.64 22.20 -5.8 0 0 354.1359 439.9179&#10;  A 22.64 22.20 -5.8 0 0 378.9034 459.7164&#10;  A 22.64 22.20 -5.8 0 0 399.1841 435.3421&#10;  Z&#10;  M 489.4620 435.4627&#10;  A 22.62 22.15 -5.6 0 0 464.7885 415.6257&#10;  A 22.62 22.15 -5.6 0 0 444.4380 439.8773&#10;  A 22.62 22.15 -5.6 0 0 469.1115 459.7143&#10;  A 22.62 22.15 -5.6 0 0 489.4620 435.4627&#10;  Z&#10;  M 444.0362 480.1499&#10;  A 22.64 22.20 -2.0 0 0 420.6352 458.7535&#10;  A 22.64 22.20 -2.0 0 0 398.7838 481.7301&#10;  A 22.64 22.20 -2.0 0 0 422.1848 503.1265&#10;  A 22.64 22.20 -2.0 0 0 444.0362 480.1499&#10;  Z"/>
<path fill="#ecebea" fill-opacity="0.835" d="&#10;  M 473.89 335.29&#10;  L 476.72 336.59&#10;  Q 478.27 337.71 478.81 339.16&#10;  A 0.31 0.31 0.0 0 1 478.36 339.54&#10;  L 469.48 334.42&#10;  A 0.16 0.16 0.0 0 1 469.60 334.12&#10;  L 473.89 335.29&#10;  Z"/>
<ellipse fill="#dfdedc" fill-opacity="0.710" cx="0.00" cy="0.00" transform="translate(481.96,338.41) rotate(-164.6)" rx="0.60" ry="0.42"/>
<path fill="#f9f7f7" fill-opacity="0.925" d="&#10;  M 554.93 538.19&#10;  Q 554.55 535.11 553.05 528.75&#10;  Q 551.64 522.80 550.97 512.19&#10;  Q 550.70 507.87 550.19 504.44&#10;  Q 549.27 498.25 549.62 496.71&#10;  Q 549.68 496.43 553.85 475.33&#10;  A 10.11 9.95 46.4 0 0 553.91 471.83&#10;  Q 551.87 459.40 548.70 446.71&#10;  C 547.52 442.00 547.17 435.33 545.45 430.08&#10;  Q 543.95 425.51 543.10 418.96&#10;  C 541.65 407.76 537.61 399.15 527.00 393.95&#10;  Q 523.86 392.41 522.90 390.38&#10;  C 518.30 380.65 511.88 371.22 505.69 361.92&#10;  C 510.12 359.11 513.00 361.93 515.53 365.70&#10;  Q 521.20 374.11 528.45 380.99&#10;  Q 531.07 383.48 534.05 389.86&#10;  A 4.42 4.32 -76.8 0 0 534.60 390.77&#10;  L 538.55 395.87&#10;  A 10.39 9.91 15.4 0 1 539.85 398.04&#10;  Q 542.46 404.02 543.39 409.80&#10;  C 544.60 417.35 544.85 419.90 546.94 426.77&#10;  C 548.81 432.90 548.77 438.95 549.30 443.95&#10;  Q 549.51 445.93 551.30 452.16&#10;  C 555.15 465.56 558.32 474.28 556.47 484.87&#10;  C 555.40 490.98 554.28 495.37 555.75 500.36&#10;  Q 555.83 500.64 558.31 508.79&#10;  C 561.40 518.92 562.50 530.46 559.86 540.63&#10;  A 0.94 0.94 0.0 0 1 558.03 540.58&#10;  Q 557.59 538.43 554.93 538.19&#10;  Z"/>
<ellipse fill="#f04727" fill-opacity="0.992" cx="0.00" cy="0.00" transform="translate(421.40,394.36) rotate(-0.8)" rx="22.68" ry="22.03"/>
<path fill="#000e1e" fill-opacity="0.992" d="&#10;  M 166.79 383.18&#10;  Q 163.65 376.97 158.00 376.49&#10;  Q 154.62 376.20 146.11 376.31&#10;  Q 137.08 376.42 134.68 377.96&#10;  Q 129.88 381.06 130.04 388.26&#10;  Q 130.09 390.10 130.03 406.52&#10;  C 130.00 412.74 129.13 416.90 122.24 416.78&#10;  Q 110.70 416.58 101.52 416.69&#10;  Q 94.86 416.76 91.94 421.41&#10;  Q 90.25 424.11 90.30 430.84&#10;  Q 90.38 442.25 90.39 443.03&#10;  Q 90.51 448.40 95.01 451.48&#10;  Q 97.46 453.15 104.34 453.04&#10;  Q 110.74 452.94 120.87 452.86&#10;  C 125.83 452.82 129.50 453.57 129.87 459.07&#10;  Q 130.15 463.35 130.12 482.42&#10;  C 130.12 486.82 131.52 489.80 135.01 492.13&#10;  Q 137.07 493.51 143.24 493.45&#10;  Q 150.12 493.40 158.54 493.33&#10;  A 4.28 4.09 -51.5 0 0 159.49 493.20&#10;  Q 165.93 491.47 167.18 484.43&#10;  Q 167.86 487.46 165.88 489.89&#10;  Q 162.90 493.54 157.75 494.19&#10;  Q 154.21 494.63 138.73 494.23&#10;  Q 138.70 494.22 138.67 494.21&#10;  L 134.80 492.88&#10;  A 2.00 1.81 69.8 0 1 134.40 492.67&#10;  Q 131.44 490.55 130.04 487.25&#10;  Q 129.21 485.29 129.33 480.75&#10;  Q 129.61 470.48 128.67 459.39&#10;  C 128.36 455.68 127.40 454.06 123.55 453.97&#10;  Q 115.09 453.76 104.25 453.74&#10;  Q 97.12 453.74 95.11 452.44&#10;  Q 90.88 449.72 89.64 444.82&#10;  A 1.74 1.53 41.4 0 1 89.59 444.42&#10;  L 89.59 425.86&#10;  A 3.29 3.16 52.0 0 1 89.66 425.19&#10;  Q 91.64 416.87 100.72 415.95&#10;  Q 103.29 415.70 115.87 415.63&#10;  C 119.05 415.61 122.25 415.17 125.34 415.09&#10;  A 2.97 2.97 0.0 0 0 128.22 412.47&#10;  C 128.54 409.64 129.17 405.67 129.22 402.15&#10;  Q 129.33 393.64 129.30 392.21&#10;  C 129.17 384.60 129.34 379.83 135.79 376.78&#10;  Q 138.07 375.70 142.85 375.54&#10;  Q 151.35 375.27 156.50 375.55&#10;  Q 164.83 376.01 166.79 383.18&#10;  Z"/>
<path fill="#2daaa1" fill-opacity="0.992" d="&#10;  M 166.79 383.18&#10;  L 167.47 411.58&#10;  C 168.43 415.79 171.74 416.81 175.86 416.73&#10;  Q 181.42 416.62 195.25 416.58&#10;  C 201.45 416.57 206.79 418.57 207.85 425.27&#10;  Q 208.32 428.25 208.01 441.99&#10;  C 207.90 446.48 206.58 449.30 203.25 451.61&#10;  Q 201.20 453.02 195.14 452.99&#10;  Q 187.56 452.94 177.84 452.87&#10;  C 172.12 452.83 167.81 453.30 167.52 459.75&#10;  Q 167.30 464.83 167.27 470.00&#10;  L 167.18 484.43&#10;  Q 165.93 491.47 159.49 493.20&#10;  A 4.28 4.09 -51.5 0 1 158.54 493.33&#10;  Q 150.12 493.40 143.24 493.45&#10;  Q 137.07 493.51 135.01 492.13&#10;  C 131.52 489.80 130.12 486.82 130.12 482.42&#10;  Q 130.15 463.35 129.87 459.07&#10;  C 129.50 453.57 125.83 452.82 120.87 452.86&#10;  Q 110.74 452.94 104.34 453.04&#10;  Q 97.46 453.15 95.01 451.48&#10;  Q 90.51 448.40 90.39 443.03&#10;  Q 90.38 442.25 90.30 430.84&#10;  Q 90.25 424.11 91.94 421.41&#10;  Q 94.86 416.76 101.52 416.69&#10;  Q 110.70 416.58 122.24 416.78&#10;  C 129.13 416.90 130.00 412.74 130.03 406.52&#10;  Q 130.09 390.10 130.04 388.26&#10;  Q 129.88 381.06 134.68 377.96&#10;  Q 137.08 376.42 146.11 376.31&#10;  Q 154.62 376.20 158.00 376.49&#10;  Q 163.65 376.97 166.79 383.18&#10;  Z"/>
<path fill="#000e1e" fill-opacity="0.992" d="&#10;  M 167.27 470.00&#10;  Q 167.30 464.83 167.52 459.75&#10;  C 167.81 453.30 172.12 452.83 177.84 452.87&#10;  Q 187.56 452.94 195.14 452.99&#10;  Q 201.20 453.02 203.25 451.61&#10;  C 206.58 449.30 207.90 446.48 208.01 441.99&#10;  Q 208.32 428.25 207.85 425.27&#10;  C 206.79 418.57 201.45 416.57 195.25 416.58&#10;  Q 181.42 416.62 175.86 416.73&#10;  C 171.74 416.81 168.43 415.79 167.47 411.58&#10;  Q 167.72 410.85 168.36 411.26&#10;  A 0.53 0.51 -78.5 0 1 168.61 411.65&#10;  Q 169.07 415.42 172.67 415.46&#10;  Q 190.03 415.67 196.95 415.72&#10;  Q 205.36 415.78 208.51 424.00&#10;  A 4.85 4.84 33.6 0 1 208.82 425.53&#10;  Q 209.02 431.79 208.93 440.25&#10;  C 208.86 446.53 207.59 449.36 203.11 452.44&#10;  Q 201.42 453.60 197.67 453.70&#10;  Q 186.25 454.01 175.26 453.86&#10;  Q 170.35 453.79 168.72 457.68&#10;  A 3.33 3.31 -31.6 0 0 168.47 458.72&#10;  C 168.34 460.38 168.88 467.05 167.27 470.00&#10;  Z"/>
<ellipse fill="#f04727" fill-opacity="0.992" cx="0.00" cy="0.00" transform="translate(376.66,437.63) rotate(-5.8)" rx="22.64" ry="22.20"/>
<ellipse fill="#f04727" fill-opacity="0.992" cx="0.00" cy="0.00" transform="translate(466.95,437.67) rotate(-5.6)" rx="22.62" ry="22.15"/>
<path fill="#073653" fill-opacity="0.992" d="&#10;  M 568.90 438.97&#10;  Q 569.24 440.67 568.49 441.82&#10;  Q 566.80 440.63 565.66 439.03&#10;  A 0.08 0.08 0.0 0 1 565.69 438.91&#10;  Q 565.75 438.87 565.97 438.87&#10;  Q 566.42 438.85 567.00 439.45&#10;  Q 567.94 440.44 568.90 438.97&#10;  Z"/>
<ellipse fill="#f04727" fill-opacity="0.992" cx="0.00" cy="0.00" transform="translate(421.41,480.94) rotate(-2.0)" rx="22.64" ry="22.20"/>
<path fill="#073653" fill-opacity="0.992" d="&#10;  M 556.69 463.78&#10;  Q 556.28 463.00 556.56 462.03&#10;  Q 556.84 462.91 556.69 463.78&#10;  Z"/>
<path fill="#dfdedc" fill-opacity="0.710" d="&#10;  M 557.59 467.98&#10;  L 557.49 468.72&#10;  Q 557.26 468.25 557.32 467.70&#10;  L 557.59 467.98&#10;  Z"/>
<path fill="#000e1e" fill-opacity="0.992" d="&#10;  M 557.92 470.84&#10;  Q 557.50 469.93 557.49 468.72&#10;  L 557.59 467.98&#10;  Q 558.06 469.47 557.92 470.84&#10;  Z"/>
<path fill="#000e1e" fill-opacity="0.992" d="&#10;  M 559.96 478.76&#10;  Q 559.42 478.34 559.71 478.18&#10;  Q 559.48 478.32 559.74 478.15&#10;  A 0.13 0.13 0.0 0 1 559.94 478.23&#10;  Q 560.00 478.48 559.96 478.76&#10;  Z"/>
<path fill="#dfdedc" fill-opacity="0.710" d="&#10;  M 567.86 558.77&#10;  Q 566.40 553.02 566.23 550.26&#10;  Q 565.50 538.69 565.63 526.99&#10;  C 565.66 524.46 565.64 522.56 565.17 520.33&#10;  Q 563.62 513.05 563.00 506.06&#10;  A 0.17 0.16 -85.3 0 0 562.88 505.91&#10;  L 562.56 505.83&#10;  A 0.05 0.04 9.7 0 0 562.50 505.87&#10;  L 562.52 511.26&#10;  A 0.04 0.04 0.0 0 1 562.45 511.27&#10;  C 561.05 504.89 560.21 500.13 561.12 493.62&#10;  C 560.82 497.47 561.26 501.66 562.05 505.29&#10;  A 0.06 0.04 52.0 0 0 562.14 505.32&#10;  Q 562.14 505.30 562.15 505.29&#10;  A 0.11 0.08 -38.0 0 0 562.17 505.21&#10;  Q 561.10 499.31 562.10 493.60&#10;  A 0.70 0.70 0.0 0 1 562.97 493.04&#10;  L 563.65 493.22&#10;  A 0.40 0.40 0.0 0 1 563.91 493.76&#10;  Q 563.63 494.41 564.23 494.49&#10;  A 0.33 0.33 0.0 0 1 564.51 494.79&#10;  L 564.83 499.39&#10;  A 0.11 0.11 0.0 0 0 565.01 499.46&#10;  L 565.21 499.29&#10;  A 0.25 0.25 0.0 0 1 565.62 499.42&#10;  L 568.04 509.53&#10;  A 0.01 0.01 0.0 0 1 568.03 509.54&#10;  L 567.76 509.61&#10;  A 0.19 0.19 0.0 0 1 567.53 509.44&#10;  L 566.64 496.83&#10;  A 0.15 0.15 0.0 0 0 566.61 496.74&#10;  Q 565.45 494.81 565.23 492.21&#10;  L 569.90 503.09&#10;  A 1.45 1.44 -57.5 0 1 570.01 503.59&#10;  Q 570.14 507.82 570.77 512.32&#10;  Q 571.21 515.49 571.00 520.67&#10;  Q 570.23 539.66 569.89 544.58&#10;  A 5.01 4.86 -34.7 0 1 569.63 545.89&#10;  Q 568.94 548.00 569.14 549.98&#10;  A 3.57 3.42 48.1 0 1 569.11 550.93&#10;  L 567.86 558.77&#10;  Z"/>
<path fill="#000e1e" fill-opacity="0.992" d="&#10;  M 1.71 521.53&#10;  Q 1.57 521.82 1.64 522.21&#10;  Q 1.54 521.77 1.71 521.53&#10;  Z"/>
<path fill="#000e1e" fill-opacity="0.992" d="&#10;  M 397.69 551.59&#10;  Q 393.26 546.31 389.34 541.15&#10;  C 386.95 538.01 380.76 532.61 376.47 530.48&#10;  Q 368.01 526.30 360.02 526.15&#10;  Q 345.60 525.87 305.97 526.06&#10;  Q 264.41 525.91 222.88 526.07&#10;  Q 208.31 526.12 203.10 527.49&#10;  Q 193.31 530.06 186.10 537.34&#10;  Q 179.38 544.13 171.18 555.66&#10;  C 164.54 564.14 158.00 573.08 147.11 587.43&#10;  C 140.05 596.72 133.82 603.44 124.73 609.96&#10;  Q 116.59 615.81 106.13 619.00&#10;  Q 102.44 620.13 98.94 621.19&#10;  Q 70.44 626.30 47.28 610.21&#10;  Q 32.69 599.83 24.97 583.74&#10;  L 25.20 583.38&#10;  A 0.60 0.60 0.0 0 1 26.23 583.44&#10;  Q 28.83 588.49 32.08 593.44&#10;  Q 35.22 598.23 39.34 602.25&#10;  Q 45.35 608.13 52.73 612.14&#10;  Q 58.01 615.01 61.52 616.57&#10;  C 66.22 618.64 70.86 619.63 76.46 620.63&#10;  Q 80.71 621.38 81.98 621.40&#10;  Q 100.96 621.65 115.10 614.50&#10;  Q 129.86 607.04 140.47 594.46&#10;  Q 146.29 587.56 146.51 587.25&#10;  Q 158.77 570.55 172.38 552.61&#10;  C 176.31 547.42 180.71 541.81 184.32 537.93&#10;  Q 193.57 527.99 206.67 525.79&#10;  C 210.66 525.12 216.30 525.03 219.25 525.03&#10;  Q 293.62 525.10 357.24 525.11&#10;  C 364.97 525.11 374.75 527.22 380.63 531.91&#10;  Q 381.17 532.34 385.57 536.09&#10;  Q 388.50 538.58 390.24 540.59&#10;  Q 394.68 545.70 397.69 551.59&#10;  Z"/>
<path fill="#f9f7f7" fill-opacity="0.925" d="&#10;  M 305.97 526.06&#10;  Q 297.85 526.45 291.79 527.67&#10;  Q 290.54 527.92 288.99 529.01&#10;  A 2.68 2.63 -2.8 0 0 288.23 529.83&#10;  Q 285.83 533.85 284.73 534.97&#10;  Q 275.38 544.41 267.63 555.57&#10;  C 265.37 558.83 260.38 563.32 256.03 566.76&#10;  Q 247.59 573.45 240.73 581.87&#10;  Q 233.39 590.88 231.44 592.59&#10;  C 215.62 606.48 194.84 609.14 174.56 605.94&#10;  C 162.44 604.02 145.11 597.80 155.44 581.80&#10;  C 159.54 575.44 166.34 565.83 171.18 555.66&#10;  Q 179.38 544.13 186.10 537.34&#10;  Q 193.31 530.06 203.10 527.49&#10;  Q 208.31 526.12 222.88 526.07&#10;  Q 264.41 525.91 305.97 526.06&#10;  Z"/>
<path fill="#dfdedc" fill-opacity="0.710" d="&#10;  M 21.27 594.49&#10;  L 20.69 593.97&#10;  Q 21.25 593.95 21.27 594.49&#10;  Z"/>
<path fill="#f9f7f7" fill-opacity="0.925" d="&#10;  M 47.28 610.21&#10;  Q 70.44 626.30 98.94 621.19&#10;  Q 97.85 622.29 97.87 622.68&#10;  A 1.52 1.52 0.0 0 0 99.41 624.14&#10;  C 109.57 623.99 117.55 624.72 129.65 625.15&#10;  Q 137.26 625.43 144.09 630.36&#10;  Q 128.94 629.45 108.00 629.97&#10;  Q 99.91 630.17 88.30 628.82&#10;  L 76.03 625.38&#10;  A 0.35 0.31 48.6 0 0 75.95 625.37&#10;  Q 74.71 625.37 74.52 625.37&#10;  Q 74.20 625.38 74.52 625.38&#10;  C 75.23 625.40 75.72 625.40 76.37 625.72&#10;  A 0.11 0.11 0.0 0 1 76.30 625.93&#10;  L 69.21 624.25&#10;  C 69.99 624.27 70.95 624.45 71.66 624.38&#10;  A 0.08 0.07 46.4 0 0 71.66 624.23&#10;  Q 69.69 623.86 68.12 623.65&#10;  Q 67.22 623.53 66.76 622.88&#10;  A 1.18 1.15 73.5 0 0 65.87 622.38&#10;  Q 60.18 622.05 54.55 617.28&#10;  A 0.14 0.14 0.0 0 0 54.36 617.48&#10;  L 54.97 618.18&#10;  A 0.20 0.20 0.0 0 1 54.99 618.44&#10;  Q 54.89 618.58 54.70 618.63&#10;  A 0.15 0.15 0.0 0 1 54.56 618.59&#10;  Q 53.60 617.62 52.55 618.11&#10;  Q 49.16 617.47 47.87 616.77&#10;  Q 43.23 614.28 38.17 612.78&#10;  L 37.31 612.27&#10;  L 46.41 614.27&#10;  A 0.25 0.25 0.0 0 0 46.59 613.81&#10;  Q 46.37 613.68 46.03 613.16&#10;  Q 44.96 611.53 45.66 610.45&#10;  Q 46.00 609.93 47.28 610.21&#10;  Z"/>
<path fill="#ecebea" fill-opacity="0.835" d="&#10;  M 52.55 618.11&#10;  L 47.74 619.07&#10;  L 38.17 612.78&#10;  Q 43.23 614.28 47.87 616.77&#10;  Q 49.16 617.47 52.55 618.11&#10;  Z"/>
<path fill="#dfdedc" fill-opacity="0.710" d="&#10;  M 69.21 624.25&#10;  Q 64.83 623.89 71.12 625.95&#10;  A 0.22 0.21 54.7 0 1 71.05 626.37&#10;  L 63.50 626.13&#10;  Q 55.21 623.86 47.74 619.07&#10;  L 52.55 618.11&#10;  Q 53.60 617.62 54.56 618.59&#10;  A 0.15 0.15 0.0 0 0 54.70 618.63&#10;  Q 54.89 618.58 54.99 618.44&#10;  A 0.20 0.20 0.0 0 0 54.97 618.18&#10;  L 54.36 617.48&#10;  A 0.14 0.14 0.0 0 1 54.55 617.28&#10;  Q 60.18 622.05 65.87 622.38&#10;  A 1.18 1.15 73.5 0 1 66.76 622.88&#10;  Q 67.22 623.53 68.12 623.65&#10;  Q 69.69 623.86 71.66 624.23&#10;  A 0.08 0.07 46.4 0 1 71.66 624.38&#10;  C 70.95 624.45 69.99 624.27 69.21 624.25&#10;  Z"/>
<path fill="#f9f7f7" fill-opacity="0.925" d="&#10;  M 328.27 631.31&#10;  L 236.30 630.26&#10;  Q 227.97 629.31 219.69 628.11&#10;  Q 218.44 627.93 217.67 627.52&#10;  A 0.47 0.47 0.0 0 1 217.75 626.65&#10;  Q 221.24 625.54 225.90 625.20&#10;  C 245.05 623.79 255.32 624.16 283.66 623.89&#10;  Q 303.09 623.71 321.85 626.42&#10;  Q 325.60 626.97 329.47 628.49&#10;  A 1.05 1.04 -62.5 0 1 329.95 630.04&#10;  Q 329.54 630.66 328.27 631.31&#10;  Z"/>
<path fill="#ecebea" fill-opacity="0.835" d="&#10;  M 69.21 624.25&#10;  L 76.30 625.93&#10;  A 0.11 0.11 0.0 0 0 76.37 625.72&#10;  C 75.72 625.40 75.23 625.40 74.52 625.38&#10;  Q 74.20 625.38 74.52 625.37&#10;  Q 74.71 625.37 75.95 625.37&#10;  A 0.35 0.31 48.6 0 1 76.03 625.38&#10;  L 88.30 628.82&#10;  Q 87.85 628.99 87.31 628.87&#10;  Q 85.77 627.90 84.76 628.77&#10;  L 82.79 628.70&#10;  Q 82.40 628.30 81.73 628.56&#10;  L 82.49 628.33&#10;  A 0.24 0.24 0.0 0 0 82.44 627.86&#10;  L 79.32 627.72&#10;  A 0.15 0.15 0.0 0 0 79.16 627.87&#10;  Q 79.16 628.35 80.10 628.14&#10;  A 0.02 0.01 4.9 0 1 80.13 628.16&#10;  Q 80.11 628.18 80.09 628.19&#10;  A 0.19 0.05 -34.5 0 1 79.95 628.24&#10;  L 71.89 626.09&#10;  A 0.29 0.29 0.0 0 0 71.61 626.57&#10;  C 72.10 627.06 72.73 627.35 73.54 627.38&#10;  A 0.01 0.00 -47.9 0 1 73.54 627.39&#10;  Q 73.34 627.42 73.29 627.56&#10;  A 0.13 0.13 0.0 0 0 73.38 627.74&#10;  L 75.22 628.14&#10;  L 63.50 626.13&#10;  L 71.05 626.37&#10;  A 0.22 0.21 54.7 0 0 71.12 625.95&#10;  Q 64.83 623.89 69.21 624.25&#10;  Z"/>
<path fill="#dfdedc" fill-opacity="0.710" d="&#10;  M 81.73 628.56&#10;  L 75.22 628.14&#10;  L 73.38 627.74&#10;  A 0.13 0.13 0.0 0 1 73.29 627.56&#10;  Q 73.34 627.42 73.54 627.39&#10;  A 0.01 0.00 -47.9 0 0 73.54 627.38&#10;  C 72.73 627.35 72.10 627.06 71.61 626.57&#10;  A 0.29 0.29 0.0 0 1 71.89 626.09&#10;  L 79.95 628.24&#10;  A 0.19 0.05 -34.5 0 0 80.09 628.19&#10;  Q 80.11 628.18 80.13 628.16&#10;  A 0.02 0.01 4.9 0 0 80.10 628.14&#10;  Q 79.16 628.35 79.16 627.87&#10;  A 0.15 0.15 0.0 0 1 79.32 627.72&#10;  L 82.44 627.86&#10;  A 0.24 0.24 0.0 0 1 82.49 628.33&#10;  L 81.73 628.56&#10;  Z"/>
<path fill="#dfdedc" fill-opacity="0.710" d="&#10;  M 82.79 628.70&#10;  Q 82.16 628.90 81.73 628.56&#10;  Q 82.40 628.30 82.79 628.70&#10;  Z"/>
<path fill="#dfdedc" fill-opacity="0.710" d="&#10;  M 87.31 628.87&#10;  L 84.76 628.77&#10;  Q 85.77 627.90 87.31 628.87&#10;  Z"/>
<path fill="#000e1e" fill-opacity="0.992" d="&#10;  M 480.71 632.63&#10;  Q 480.16 632.72 479.77 632.53&#10;  Q 480.20 632.69 480.71 632.63&#10;  Z"/>
</svg>